<svg width="56" height="56" viewBox="0 0 56 56" fill="none" xmlns="http://www.w3.org/2000/svg">
<path fill-rule="evenodd" clip-rule="evenodd" d="M6.41797 13.9993C6.41797 11.9881 7.21692 10.0593 8.63908 8.63712C10.0612 7.21497 11.9901 6.41602 14.0013 6.41602H32.668C33.1321 6.41602 33.5772 6.23164 33.9054 5.90345C34.2336 5.57526 34.418 5.13014 34.418 4.66602C34.418 4.20189 34.2336 3.75677 33.9054 3.42858C33.5772 3.10039 33.1321 2.91602 32.668 2.91602H14.0013C11.0618 2.91602 8.24273 4.08372 6.1642 6.16225C4.08567 8.24078 2.91797 11.0599 2.91797 13.9993V41.9993C2.91797 44.9388 4.08567 47.7579 6.1642 49.8364C8.24273 51.915 11.0618 53.0827 14.0013 53.0827H42.0013C44.9408 53.0827 47.7599 51.915 49.8384 49.8364C51.9169 47.7579 53.0846 44.9388 53.0846 41.9993V23.3327C53.0846 22.8686 52.9003 22.4234 52.5721 22.0952C52.2439 21.7671 51.7988 21.5827 51.3346 21.5827C50.8705 21.5827 50.4254 21.7671 50.0972 22.0952C49.769 22.4234 49.5846 22.8686 49.5846 23.3327V31.5227C49.4793 31.4371 49.3703 31.3561 49.258 31.28L43.7023 27.577C41.9068 26.3798 39.7519 25.8417 37.6044 26.0544C35.4568 26.2671 33.4494 27.2175 31.9236 28.7437L24.0813 36.586C22.5557 38.1116 20.5487 39.0616 18.4017 39.2743C16.2546 39.487 14.1002 38.9493 12.305 37.7527L6.41797 33.8327V13.9993ZM46.0846 4.66602C46.0846 4.20189 45.9003 3.75677 45.5721 3.42858C45.2439 3.10039 44.7988 2.91602 44.3346 2.91602C43.8705 2.91602 43.4254 3.10039 43.0972 3.42858C42.769 3.75677 42.5846 4.20189 42.5846 4.66602V9.91602H37.3346C36.8705 9.91602 36.4254 10.1004 36.0972 10.4286C35.769 10.7568 35.5846 11.2019 35.5846 11.666C35.5846 12.1301 35.769 12.5753 36.0972 12.9035C36.4254 13.2316 36.8705 13.416 37.3346 13.416H42.5846V18.666C42.5846 19.1301 42.769 19.5753 43.0972 19.9035C43.4254 20.2316 43.8705 20.416 44.3346 20.416C44.7988 20.416 45.2439 20.2316 45.5721 19.9035C45.9003 19.5753 46.0846 19.1301 46.0846 18.666V13.416H51.3346C51.7988 13.416 52.2439 13.2316 52.5721 12.9035C52.9003 12.5753 53.0846 12.1301 53.0846 11.666C53.0846 11.2019 52.9003 10.7568 52.5721 10.4286C52.2439 10.1004 51.7988 9.91602 51.3346 9.91602H46.0846V4.66602ZM19.8346 25.666C21.3817 25.666 22.8655 25.0514 23.9594 23.9575C25.0534 22.8635 25.668 21.3798 25.668 19.8327C25.668 18.2856 25.0534 16.8019 23.9594 15.7079C22.8655 14.6139 21.3817 13.9993 19.8346 13.9993C18.2875 13.9993 16.8038 14.6139 15.7098 15.7079C14.6159 16.8019 14.0013 18.2856 14.0013 19.8327C14.0013 21.3798 14.6159 22.8635 15.7098 23.9575C16.8038 25.0514 18.2875 25.666 19.8346 25.666Z" fill="#AF8E42"/>
</svg>
