<svg width="56" height="56" viewBox="0 0 56 56" fill="none" xmlns="http://www.w3.org/2000/svg">
<path d="M37.3333 4.66602L49 16.3327V49.0185C49 50.2967 47.9619 51.3327 46.6821 51.3327H9.31793C8.03777 51.3327 7 50.2703 7 49.0185V6.98022C7 5.70213 8.03822 4.66602 9.31793 4.66602H37.3333ZM35.0019 27.2223L23.6178 19.6328C23.4645 19.5306 23.2843 19.4761 23.1 19.4761C22.5846 19.4761 22.1667 19.8939 22.1667 20.4094V35.5883C22.1667 35.7726 22.2213 35.9528 22.3235 36.1061C22.6093 36.5349 23.1889 36.6509 23.6178 36.3648L35.0019 28.7754C35.1043 28.7071 35.1923 28.6191 35.2606 28.5166C35.5467 28.0878 35.4307 27.5082 35.0019 27.2223Z" fill="#AF8E42"/>
</svg>
