<svg width="20" height="20" viewBox="0 0 20 20" fill="none" xmlns="http://www.w3.org/2000/svg">
<path d="M5.83594 15C4.31183 15.3431 3.33594 15.8703 3.33594 16.4614C3.33594 17.4953 6.3207 18.3333 10.0026 18.3333C13.6845 18.3333 16.6693 17.4953 16.6693 16.4614C16.6693 15.8703 15.6934 15.3431 14.1693 15" stroke="#52525B" stroke-width="1.25" stroke-linecap="round"/>
<path d="M12.0807 7.5013C12.0807 8.65189 11.148 9.58464 9.9974 9.58464C8.84681 9.58464 7.91406 8.65189 7.91406 7.5013C7.91406 6.35071 8.84681 5.41797 9.9974 5.41797C11.148 5.41797 12.0807 6.35071 12.0807 7.5013Z" stroke="#52525B" stroke-width="1.25"/>
<path d="M11.0452 14.5793C10.7641 14.85 10.3885 15.0013 9.99756 15.0013C9.60656 15.0013 9.2309 14.85 8.94981 14.5793C6.37598 12.0853 2.92672 9.29922 4.60882 5.25441C5.51831 3.0674 7.70151 1.66797 9.99756 1.66797C12.2936 1.66797 14.4767 3.06741 15.3862 5.25441C17.0662 9.29414 13.6254 12.0939 11.0452 14.5793Z" stroke="#52525B" stroke-width="1.25"/>
</svg>
