 <svg width="20" height="20" viewBox="0 0 20 20" fill="none" xmlns="http://www.w3.org/2000/svg">
<path d="M5.50315 7.12929C5.60482 7.26429 5.90815 7.66512 6.08815 7.89679C6.44982 8.36012 6.94398 8.97595 7.47731 9.59012C8.01315 10.2076 8.57648 10.8085 9.07648 11.251C9.32731 11.4718 9.54731 11.6401 9.72898 11.7501C9.89982 11.8526 10.0015 11.8743 10.0015 11.8743C10.0015 11.8743 10.099 11.8526 10.2698 11.7501C10.4523 11.6401 10.6723 11.4718 10.9231 11.251C11.4231 10.8085 11.9856 10.2076 12.5215 9.59012C13.0548 8.97595 13.549 8.36012 13.9106 7.89679C14.0915 7.66512 14.394 7.26429 14.4956 7.13012C14.7006 6.85179 15.0923 6.79179 15.3706 6.99679C15.6481 7.20179 15.7073 7.59262 15.5031 7.87095L15.5015 7.87262C15.3948 8.01429 15.0806 8.43012 14.8965 8.66595C14.5265 9.14012 14.0181 9.77429 13.4656 10.4101C12.9165 11.0426 12.3115 11.6918 11.7506 12.1868C11.4706 12.4343 11.1873 12.6568 10.9156 12.8201C10.6606 12.9743 10.3381 13.1251 9.99981 13.1251C9.66065 13.1251 9.33815 12.9743 9.08398 12.8201C8.81231 12.6568 8.52815 12.4343 8.24898 12.1868C7.68815 11.6918 7.08315 11.0426 6.53398 10.4101C5.98148 9.77429 5.47315 9.14012 5.10315 8.66595C4.91815 8.42929 4.60481 8.01345 4.49815 7.87262L4.49648 7.87095C4.29231 7.59345 4.35148 7.20179 4.62898 6.99679C4.90731 6.79262 5.29815 6.85179 5.50315 7.12929Z" fill="#52525B"/>
</svg>
