<svg width="24" height="24" viewBox="0 0 24 24" fill="none" xmlns="http://www.w3.org/2000/svg">
<path d="M15.2258 15.5079L13.0131 20.1581C12.8707 20.4573 12.5127 20.5844 12.2135 20.442C12.1468 20.4103 12.0865 20.3665 12.0357 20.3129L8.49424 16.5741C8.39944 16.474 8.27308 16.4096 8.1364 16.3918L3.03011 15.7243C2.70153 15.6814 2.46999 15.3802 2.51294 15.0516C2.52251 14.9784 2.54554 14.9075 2.58085 14.8426L5.04226 10.3192C5.10815 10.1981 5.13034 10.058 5.10509 9.92253L4.16195 4.85991C4.10126 4.53414 4.31615 4.22086 4.64192 4.16017C4.71455 4.14664 4.78906 4.14664 4.86169 4.16017L9.92432 5.10331C10.0599 5.12855 10.2 5.10637 10.321 5.04048L14.8444 2.57907C15.1355 2.42068 15.4999 2.52825 15.6582 2.81931C15.6936 2.88421 15.7166 2.95507 15.7261 3.02833L16.3936 8.13462C16.4115 8.2713 16.4759 8.39766 16.5759 8.49245L20.3147 12.0338C20.5553 12.2617 20.5655 12.6415 20.3377 12.8821C20.2868 12.9357 20.2266 12.9795 20.1599 13.0112L15.5098 15.224C15.3853 15.2832 15.285 15.3835 15.2258 15.5079ZM16.0226 17.435L17.4368 16.0208L21.6795 20.2634L20.2653 21.6776L16.0226 17.435Z" fill="white"/>
</svg>
