<svg width="24" height="24" viewBox="0 0 24 24" fill="none" xmlns="http://www.w3.org/2000/svg">
<path d="M15.2006 9.94435C14.7669 9.53358 14.4879 8.98601 14.4105 8.39372L14.0076 5.31126L11.277 6.79712C10.7523 7.08262 10.1453 7.17876 9.55803 7.06936L6.50193 6.50003L7.07126 9.55613C7.18066 10.1434 7.08452 10.7504 6.79902 11.275L5.31316 14.0056L8.39562 14.4085C8.98791 14.486 9.53548 14.765 9.94626 15.1986L12.0841 17.4556L13.4198 14.6485C13.6765 14.1091 14.111 13.6746 14.6504 13.4179L17.4575 12.0822L15.2006 9.94435ZM15.2258 15.5078L13.0131 20.158C12.8707 20.4572 12.5127 20.5843 12.2135 20.4419C12.1468 20.4102 12.0865 20.3664 12.0357 20.3128L8.49424 16.574C8.39944 16.4739 8.27308 16.4095 8.1364 16.3917L3.03011 15.7242C2.70153 15.6813 2.46999 15.3801 2.51294 15.0515C2.52251 14.9783 2.54554 14.9074 2.58085 14.8425L5.04226 10.3191C5.10815 10.198 5.13034 10.0579 5.10509 9.92241L4.16195 4.85979C4.10126 4.53402 4.31615 4.22074 4.64192 4.16005C4.71455 4.14652 4.78906 4.14652 4.86169 4.16005L9.92432 5.10319C10.0599 5.12843 10.2 5.10625 10.321 5.04036L14.8444 2.57895C15.1355 2.42056 15.4999 2.52813 15.6582 2.81919C15.6936 2.88409 15.7166 2.95495 15.7261 3.02821L16.3936 8.1345C16.4115 8.27118 16.4759 8.39754 16.5759 8.49233L20.3147 12.0337C20.5553 12.2616 20.5655 12.6414 20.3377 12.882C20.2868 12.9356 20.2266 12.9794 20.1599 13.0111L15.5098 15.2239C15.3853 15.2831 15.285 15.3834 15.2258 15.5078ZM16.0226 17.4349L17.4368 16.0207L21.6795 20.2633L20.2653 21.6775L16.0226 17.4349Z" fill="#A1A1AA"/>
</svg>
