<svg width="32" height="32" viewBox="0 0 32 32" fill="none" xmlns="http://www.w3.org/2000/svg">
<path d="M15.9987 17.334C20.417 17.334 23.9987 13.7523 23.9987 9.33398C23.9987 4.9157 20.417 1.33398 15.9987 1.33398C11.5804 1.33398 7.9987 4.9157 7.9987 9.33398C7.9987 13.7523 11.5804 17.334 15.9987 17.334ZM19.9987 24.0007C19.9987 21.7915 21.7895 20.0007 23.9987 20.0007C24.6162 20.0007 25.2011 20.1407 25.7232 20.3905L20.3886 25.7252C20.1387 25.2031 19.9987 24.6181 19.9987 24.0007ZM22.2742 27.6108L27.6088 22.2761C27.8587 22.7983 27.9987 23.3832 27.9987 24.0007C27.9987 26.2099 26.2079 28.0007 23.9987 28.0007C23.3812 28.0007 22.7963 27.8607 22.2742 27.6108ZM23.9987 17.334C20.3168 17.334 17.332 20.3188 17.332 24.0007C17.332 27.6825 20.3168 30.6673 23.9987 30.6673C27.6806 30.6673 30.6654 27.6825 30.6654 24.0007C30.6654 20.3188 27.6806 17.334 23.9987 17.334ZM15.9987 18.6673C16.1111 18.6673 16.2231 18.6691 16.3347 18.6725C15.2824 20.1833 14.6654 22.02 14.6654 24.0007C14.6654 25.9836 15.2838 27.8223 16.3383 29.334H5.33203C5.33203 23.4429 10.1077 18.6673 15.9987 18.6673Z" fill="white"/>
</svg>
