<svg width="20" height="21" viewBox="0 0 20 21" fill="none" xmlns="http://www.w3.org/2000/svg">
<path d="M4.43022 1.57246C4.90272 1.66996 5.27855 1.98663 5.51272 2.40579L6.25689 3.74163C6.53105 4.23329 6.76189 4.64746 6.91272 5.00746C7.07189 5.38913 7.16689 5.76496 7.12355 6.18163C7.08022 6.59746 6.90939 6.94579 6.67439 7.28663C6.45272 7.60746 6.14189 7.96496 5.77189 8.38996L3.91522 10.5225C5.38772 12.9358 7.56189 15.1108 9.97772 16.5841L12.1102 14.7283C12.5352 14.3583 12.8927 14.0475 13.2136 13.8258C13.5536 13.59 13.9027 13.42 14.3186 13.3766C14.7352 13.3325 15.1111 13.4275 15.4927 13.5875C15.8527 13.7383 16.2669 13.9691 16.7586 14.2433L18.0936 14.9875C18.5127 15.2216 18.8302 15.5975 18.9277 16.07C19.0269 16.5466 18.8811 17.0266 18.5594 17.4208C17.3944 18.8508 15.5261 19.7616 13.5669 19.3666C12.3627 19.1233 11.1744 18.7183 9.73689 17.8941C6.84939 16.2383 4.26022 13.6475 2.60605 10.7633C1.78105 9.32579 1.37689 8.13746 1.13355 6.93329C0.738555 4.97413 1.64939 3.10579 3.07939 1.93996C3.47355 1.61913 3.95355 1.47329 4.43022 1.57246ZM11.1419 17.2283C12.1144 17.7075 12.9594 17.9683 13.8144 18.1408C15.2277 18.4258 16.6544 17.78 17.5911 16.6308C17.7136 16.48 17.7144 16.375 17.7036 16.3225C17.6919 16.2658 17.6444 16.1683 17.4852 16.0791L16.1802 15.3516C15.6502 15.0566 15.2977 14.8608 15.0102 14.7408C14.7369 14.6266 14.5811 14.6058 14.4486 14.62C14.3161 14.6333 14.1669 14.6858 13.9236 14.8541C13.6677 15.0308 13.3627 15.295 12.9052 15.6933L11.1419 17.2283ZM3.27189 9.35829L4.80689 7.59496C5.20522 7.13746 5.46939 6.83246 5.64605 6.57663C5.81439 6.33329 5.86689 6.18413 5.88022 6.05163C5.89439 5.91913 5.87355 5.76246 5.75939 5.48996C5.63939 5.20246 5.44355 4.84996 5.14855 4.31996L4.42022 3.01496C4.33189 2.85579 4.23439 2.80829 4.17772 2.79663C4.12522 2.78579 4.02022 2.78663 3.86939 2.90913C2.72022 3.84579 2.07355 5.27246 2.35939 6.68579C2.53105 7.54079 2.79272 8.38579 3.27189 9.35829Z" fill="#71717A"/>
</svg>
