<svg width="20" height="20" viewBox="0 0 20 20" fill="none" xmlns="http://www.w3.org/2000/svg">
<path d="M2.8125 2.5C1.94917 2.5 1.25 3.2 1.25 4.0625V4.6875C1.25 5.55083 1.95 6.25 2.8125 6.25H17.1875C18.05 6.25 18.75 5.55 18.75 4.6875V4.0625C18.75 3.19917 18.05 2.5 17.1875 2.5H2.8125Z" fill="#ED1523"/>
<path fill-rule="evenodd" clip-rule="evenodd" d="M2.57422 7.5L3.02422 15.1467C3.06161 15.783 3.34063 16.3809 3.80423 16.8184C4.26783 17.2558 4.881 17.4996 5.51839 17.5H14.4826C15.1202 17.5 15.7338 17.2564 16.1978 16.8189C16.6617 16.3815 16.941 15.7832 16.9784 15.1467L17.4292 7.5H2.57422ZM7.68505 9.87083C7.80224 9.75379 7.96109 9.68805 8.12672 9.68805C8.29234 9.68805 8.4512 9.75379 8.56839 9.87083L10.0017 11.3042L11.4351 9.87083C11.4923 9.80943 11.5613 9.76018 11.6379 9.72602C11.7146 9.69186 11.7974 9.67349 11.8813 9.67201C11.9652 9.67053 12.0486 9.68596 12.1264 9.7174C12.2042 9.74883 12.2749 9.79562 12.3343 9.85497C12.3936 9.91432 12.4404 9.98501 12.4718 10.0628C12.5033 10.1407 12.5187 10.224 12.5172 10.3079C12.5157 10.3919 12.4974 10.4746 12.4632 10.5513C12.429 10.6279 12.3798 10.6969 12.3184 10.7542L10.8851 12.1875L12.3184 13.6208C12.3798 13.6781 12.429 13.7471 12.4632 13.8237C12.4974 13.9004 12.5157 13.9831 12.5172 14.0671C12.5187 14.151 12.5033 14.2343 12.4718 14.3122C12.4404 14.39 12.3936 14.4607 12.3343 14.52C12.2749 14.5794 12.2042 14.6262 12.1264 14.6576C12.0486 14.689 11.9652 14.7045 11.8813 14.703C11.7974 14.7015 11.7146 14.6831 11.6379 14.649C11.5613 14.6148 11.4923 14.5656 11.4351 14.5042L10.0017 13.0708L8.56839 14.5042C8.51117 14.5656 8.44217 14.6148 8.3655 14.649C8.28883 14.6831 8.20607 14.7015 8.12215 14.703C8.03823 14.7045 7.95488 14.689 7.87705 14.6576C7.79923 14.6262 7.72854 14.5794 7.66919 14.52C7.60984 14.4607 7.56305 14.39 7.53162 14.3122C7.50018 14.2343 7.48475 14.151 7.48623 14.0671C7.48771 13.9831 7.50607 13.9004 7.54023 13.8237C7.57439 13.7471 7.62365 13.6781 7.68505 13.6208L9.11838 12.1875L7.68505 10.7542C7.56801 10.637 7.50227 10.4781 7.50227 10.3125C7.50227 10.1469 7.56801 9.98802 7.68505 9.87083Z" fill="#ED1523"/>
</svg>
