<svg width="24" height="24" viewBox="0 0 24 24" fill="none" xmlns="http://www.w3.org/2000/svg">
<path d="M4.5 17.5C4.5 18.8807 5.6193 20 7 20C8.3807 20 9.5 18.8807 9.5 17.5C9.5 16.1193 8.3807 15 7 15C5.6193 15 4.5 16.1193 4.5 17.5Z" stroke="#3F3F46" stroke-width="1.5"/>
<path d="M14.5 17.5C14.5 18.8807 15.6193 20 17 20C18.3807 20 19.5 18.8807 19.5 17.5C19.5 16.1193 18.3807 15 17 15C15.6193 15 14.5 16.1193 14.5 17.5Z" stroke="#3F3F46" stroke-width="1.5"/>
<path d="M9.5 17.5H14.5M4.5 17.5H3.7368C3.5169 17.5 3.4069 17.5 3.3145 17.4885C2.6331 17.4036 2.0964 16.8669 2.0115 16.1855C2 16.0931 2 15.9831 2 15.7632V13C2 9.41015 4.9101 6.5 8.5 6.5M22 4H12C10.5858 4 9.8787 4 9.4393 4.43934C9 4.87868 9 5.58579 9 7V15.5M22 12.75V15C22 15.9346 22 16.4019 21.799 16.75C21.6674 16.978 21.478 17.1674 21.25 17.299C20.9019 17.5 20.4346 17.5 19.5 17.5" stroke="#3F3F46" stroke-width="1.5" stroke-linecap="round" stroke-linejoin="round"/>
<path d="M22 7H16M22 10H18" stroke="#3F3F46" stroke-width="1.5" stroke-linecap="round" stroke-linejoin="round"/>
</svg>
