<svg width="21" height="20" viewBox="0 0 21 20" fill="none" xmlns="http://www.w3.org/2000/svg">
    <path fill-rule="evenodd" clip-rule="evenodd" d="M10.5473 1.45703H10.5473C12.3729 1.45702 13.8068 1.45701 14.9263 1.60753C16.0735 1.76177 16.9837 2.08429 17.6989 2.79946C18.4141 3.51462 18.7366 4.42484 18.8908 5.57205C19.0414 6.69156 19.0414 8.12548 19.0413 9.95106V10.0464C19.0414 11.8719 19.0414 13.3058 18.8908 14.4253C18.7366 15.5726 18.4141 16.4828 17.6989 17.1979C16.9837 17.9131 16.0735 18.2356 14.9263 18.3899C13.8068 18.5404 12.3729 18.5404 10.5473 18.5404H10.452C8.62643 18.5404 7.19254 18.5404 6.07303 18.3899C4.92581 18.2356 4.0156 17.9131 3.30044 17.1979C2.58527 16.4828 2.26274 15.5726 2.1085 14.4253C1.95799 13.3058 1.958 11.8719 1.95801 10.0464V10.0463V9.95105V9.95104C1.958 8.12546 1.95799 6.69156 2.1085 5.57205C2.26274 4.42484 2.58527 3.51462 3.30044 2.79946C4.0156 2.08429 4.92581 1.76177 6.07303 1.60753C7.19254 1.45701 8.62644 1.45702 10.452 1.45703H10.452H10.5473ZM14.3961 6.88441C14.7354 7.1954 14.7583 7.72254 14.4473 8.06181L9.86397 13.0618C9.71038 13.2294 9.49502 13.3269 9.26778 13.3318C9.04054 13.3368 8.82114 13.2487 8.66042 13.088L6.57709 11.0046C6.25165 10.6792 6.25165 10.1516 6.57709 9.82611C6.90252 9.50068 7.43016 9.50068 7.7556 9.82611L9.2235 11.294L13.2187 6.9356C13.5297 6.59633 14.0568 6.57341 14.3961 6.88441Z"
        fill="#AF8E42"/>
</svg>
