<svg width="24" height="24" viewBox="0 0 24 24" fill="none" xmlns="http://www.w3.org/2000/svg">
<path d="M10.0039 21H3.00391C2.45163 21 2.00391 20.5523 2.00391 20V4C2.00391 3.44772 2.45163 3 3.00391 3H10.0039C10.0039 4.10457 10.8993 5 12.0039 5C13.1085 5 14.0039 4.10457 14.0039 3H21.0039C21.5562 3 22.0039 3.44772 22.0039 4V20C22.0039 20.5523 21.5562 21 21.0039 21H14.0039C14.0039 19.8954 13.1085 19 12.0039 19C10.8993 19 10.0039 19.8954 10.0039 21ZM6.00391 8V16H8.00391V8H6.00391ZM16.0039 8V16H18.0039V8H16.0039Z" fill="white"/>
</svg>
