<svg width="20" height="20" viewBox="0 0 20 20" fill="none" xmlns="http://www.w3.org/2000/svg">
<path d="M10.9192 1.04175C11.2283 1.04258 11.4975 1.04675 11.7292 1.06758C12.0367 1.09508 12.3233 1.15508 12.6017 1.29925C12.7125 1.35675 12.8175 1.42258 12.9167 1.49675C13.1683 1.68425 13.3467 1.91591 13.5058 2.18091C13.6558 2.43008 13.8075 2.74425 13.9867 3.11341L14.3967 3.95841H18.125C18.47 3.95841 18.75 4.23841 18.75 4.58341C18.75 4.92841 18.47 5.20841 18.125 5.20841H17.4625L16.98 13.0084C16.9158 14.0484 16.865 14.8734 16.7608 15.5326C16.6533 16.2084 16.4817 16.7717 16.1383 17.2642C15.8242 17.7142 15.42 18.0951 14.9508 18.3801C14.4383 18.6926 13.8658 18.8292 13.1842 18.8951C12.52 18.9584 11.6933 18.9584 10.6508 18.9584H10.5867C9.54333 18.9584 8.71583 18.9584 8.05 18.8951C7.36833 18.8292 6.795 18.6926 6.2825 18.3792C5.8125 18.0934 5.40833 17.7126 5.09417 17.2609C4.75083 16.7676 4.58 16.2042 4.47333 15.5267C4.37 14.8667 4.32 14.0409 4.25667 12.9992L3.78667 5.20841H3.125C2.78 5.20841 2.5 4.92841 2.5 4.58341C2.5 4.23841 2.78 3.95841 3.125 3.95841H6.93417L7.28333 3.19258C7.4575 2.80925 7.60583 2.48425 7.75333 2.22591C7.91 1.95175 8.0875 1.71008 8.3425 1.51508C8.4425 1.43841 8.54917 1.36925 8.66167 1.31008C8.945 1.15925 9.2375 1.09758 9.5525 1.06841C9.84833 1.04175 10.2058 1.04175 10.6267 1.04175H10.9192ZM16.21 5.20841H5.03917L5.5025 12.8917C5.56833 13.9726 5.615 14.7392 5.70833 15.3334C5.8 15.9167 5.92833 16.2717 6.12 16.5476C6.335 16.8559 6.61167 17.1167 6.93333 17.3126C7.21917 17.4867 7.58167 17.5942 8.17 17.6501C8.76833 17.7076 9.53583 17.7084 10.6192 17.7084C11.7 17.7084 12.4675 17.7076 13.065 17.6509C13.6525 17.5942 14.0142 17.4876 14.3 17.3126C14.6217 17.1176 14.8983 16.8576 15.1133 16.5492C15.305 16.2742 15.4333 15.9201 15.5258 15.3367C15.62 14.7434 15.6683 13.9784 15.735 12.8992L16.21 5.20841ZM8.54167 8.12508C8.88667 8.12508 9.16667 8.40508 9.16667 8.75008V13.7501C9.16667 14.0951 8.88667 14.3751 8.54167 14.3751C8.19667 14.3751 7.91667 14.0951 7.91667 13.7501V8.75008C7.91667 8.40508 8.19667 8.12508 8.54167 8.12508ZM12.7083 8.12508C13.0533 8.12508 13.3333 8.40508 13.3333 8.75008V13.7501C13.3333 14.0951 13.0533 14.3751 12.7083 14.3751C12.3633 14.3751 12.0833 14.0951 12.0833 13.7501V8.75008C12.0833 8.40508 12.3633 8.12508 12.7083 8.12508ZM10.9992 2.29258H10.34C10.0525 2.29341 9.84 2.29758 9.66583 2.31341C9.44417 2.33341 9.33167 2.36925 9.24833 2.41341C9.1975 2.44091 9.14917 2.47175 9.10333 2.50675C9.02833 2.56425 8.94917 2.65258 8.83917 2.84508C8.72333 3.04841 8.59833 3.32091 8.40917 3.73508L8.3075 3.95841H13.0075L12.8733 3.68258C12.68 3.28258 12.5517 3.02008 12.4342 2.82425C12.3225 2.63841 12.2442 2.55425 12.1692 2.49841C12.1242 2.46508 12.0767 2.43508 12.0267 2.40841C11.9442 2.36591 11.8333 2.33175 11.6175 2.31258C11.455 2.29841 11.26 2.29341 10.9992 2.29258Z" fill="#FF0000"/>
</svg>
