<svg width="20" height="20" viewBox="0 0 20 20" fill="none" xmlns="http://www.w3.org/2000/svg">
<path fill-rule="evenodd" clip-rule="evenodd" d="M0.832031 6.66732C0.832031 6.20708 1.20513 5.83398 1.66536 5.83398L6.66536 5.83398C7.1256 5.83398 7.4987 6.20708 7.4987 6.66732C7.4987 7.12756 7.1256 7.50065 6.66536 7.50065L1.66536 7.50065C1.20513 7.50065 0.832031 7.12756 0.832031 6.66732ZM0.832031 9.16732C0.832031 8.70708 1.20513 8.33398 1.66536 8.33398H4.9987C5.45894 8.33398 5.83203 8.70708 5.83203 9.16732C5.83203 9.62756 5.45894 10.0007 4.9987 10.0007H1.66536C1.20513 10.0007 0.832031 9.62756 0.832031 9.16732Z" fill="#B558F6"/>
<path fill-rule="evenodd" clip-rule="evenodd" d="M8.70426 2.70901C9.52353 2.70869 10.0832 2.70847 10.5562 2.86209C11.2593 3.09039 11.8502 3.55679 12.236 4.16822L13.4424 4.16822C14.0159 4.1682 14.507 4.16818 14.9145 4.20931C15.3501 4.25327 15.7574 4.34908 16.1461 4.58114C16.5349 4.81321 16.8124 5.12623 17.0576 5.48868C17.287 5.82779 17.5199 6.26 17.7917 6.76467L18.8753 8.776C18.9413 8.89851 18.9736 9.03018 18.9752 9.1603L18.9753 9.17138L18.9753 10.8839C18.9753 11.8284 18.9753 12.6004 18.8933 13.2098C18.8076 13.8468 18.6222 14.3991 18.1811 14.84C18.0145 15.0065 17.8316 15.1369 17.6335 15.2392C17.5559 15.2794 17.5171 15.2994 17.4798 15.3008C17.4139 15.3033 17.3507 15.2648 17.3226 15.2052C17.3067 15.1715 17.3067 15.1171 17.3067 15.0084C17.3067 13.2814 15.906 11.8815 14.1781 11.8815C12.4502 11.8815 11.0495 13.2814 11.0495 15.0084C11.0495 15.0802 11.0519 15.1515 11.0567 15.2221C11.0701 15.4213 11.0769 15.5208 11.0271 15.5738C10.9774 15.6267 10.8854 15.6263 10.7015 15.6255L9.30859 15.6191C9.12672 15.6182 9.03578 15.6178 8.98661 15.5651C8.93743 15.5123 8.94392 15.4139 8.95689 15.217C8.96144 15.148 8.96375 15.0785 8.96375 15.0084C8.96375 13.2814 7.56302 11.8815 5.83514 11.8815C4.10726 11.8815 2.70654 13.2814 2.70654 15.0084C2.70654 15.1171 2.70654 15.1715 2.69064 15.2053C2.66255 15.2649 2.59933 15.3033 2.53346 15.3009C2.49617 15.2995 2.45733 15.2794 2.37967 15.2392C2.18165 15.1369 1.99871 15.0065 1.83209 14.84C1.24737 14.2556 1.10818 13.4701 1.06169 12.5379C1.0612 12.5281 1.06094 12.5182 1.06091 12.5084L1.05868 11.6175C1.05819 11.4212 1.05794 11.3231 1.1115 11.2734C1.16506 11.2238 1.27671 11.2324 1.50002 11.2497C1.55402 11.2539 1.60859 11.2561 1.66367 11.2561L5.00085 11.2561C6.15277 11.2561 7.08658 10.3227 7.08658 9.17144C7.08658 8.96831 7.08658 8.86674 7.10987 8.81663C7.12466 8.7848 7.12848 8.77907 7.15218 8.75317C7.18949 8.7124 7.28363 8.67315 7.4719 8.59464C8.2255 8.28042 8.75517 7.53698 8.75517 6.66989C8.75517 5.51858 7.82136 4.58527 6.66944 4.58527L1.66367 4.58527C1.48689 4.58527 1.3985 4.58527 1.35391 4.5517C1.32227 4.52788 1.30173 4.49674 1.29228 4.4583C1.27896 4.40412 1.30674 4.33927 1.36232 4.20958C1.47293 3.95144 1.62484 3.71568 1.83493 3.50519C2.27627 3.06297 2.82982 2.87708 3.4684 2.79118C4.07936 2.70901 4.85341 2.70902 5.80072 2.70904L8.70426 2.70901ZM16.2976 8.546C16.547 8.546 16.6717 8.546 16.7202 8.46474C16.7688 8.38349 16.7097 8.27377 16.5914 8.05432L16.3413 7.59001C16.0456 7.0411 15.852 6.68398 15.6754 6.42286C15.5093 6.17734 15.3958 6.07576 15.2905 6.01289C15.1852 5.95001 15.0419 5.89835 14.7469 5.86857C14.4331 5.8369 14.0268 5.83593 13.403 5.83593H13.0553C12.8928 5.83593 12.8115 5.83593 12.7625 5.88552C12.7135 5.93512 12.7146 6.01772 12.7167 6.18292C12.7188 6.34862 12.7185 6.51437 12.7182 6.68008L12.718 6.8366C12.718 7.50609 12.7258 7.69251 12.7691 7.82578C12.8722 8.1431 13.1212 8.39188 13.4387 8.49498C13.572 8.53828 13.7585 8.546 14.4284 8.546H16.2976Z" fill="#B558F6"/>
<circle cx="14.1654" cy="15.0013" r="2.08333" fill="#B558F6"/>
<circle cx="5.83333" cy="15.0013" r="2.08333" fill="#B558F6"/>
</svg>
