<svg width="24" height="24" viewBox="0 0 24 24" fill="none" xmlns="http://www.w3.org/2000/svg">
<path d="M9 19C6.191 19 4.787 19 3.778 18.326C3.34106 18.0341 2.96591 17.6589 2.674 17.222C2 16.213 2 14.81 2 12C2 9.19 2 7.787 2.674 6.778C2.96591 6.34106 3.34106 5.96591 3.778 5.674C4.787 5 6.19 5 9 5H15C17.809 5 19.213 5 20.222 5.674C20.6589 5.96591 21.0341 6.34106 21.326 6.778C22 7.787 22 9.19 22 12C22 14.81 22 16.213 21.326 17.222C21.0341 17.6589 20.6589 18.0341 20.222 18.326C19.213 19 17.81 19 15 19H9Z" stroke="#3F3F46" stroke-width="1.5"/>
<path d="M12 9C12.7956 9 13.5587 9.31607 14.1213 9.87868C14.6839 10.4413 15 11.2044 15 12C15 12.7956 14.6839 13.5587 14.1213 14.1213C13.5587 14.6839 12.7956 15 12 15C11.2044 15 10.4413 14.6839 9.87868 14.1213C9.31607 13.5587 9 12.7956 9 12C9 11.2044 9.31607 10.4413 9.87868 9.87868C10.4413 9.31607 11.2044 9 12 9Z" stroke="#3F3F46" stroke-width="1.5"/>
<path d="M5.5 15V9M18.5 15V9" stroke="#3F3F46" stroke-width="1.5" stroke-linecap="round"/>
</svg>
