<svg width="20" height="21" viewBox="0 0 20 21" fill="none" xmlns="http://www.w3.org/2000/svg">
<path fill-rule="evenodd" clip-rule="evenodd" d="M4.45195 18.6174H2.50195C2.16029 18.6174 1.87695 18.3341 1.87695 17.9924V16.0424C1.87695 15.3008 1.87695 14.8924 2.05195 14.4758C2.22695 14.0591 2.51029 13.7757 3.02695 13.259L11.5944 4.69159C11.6095 4.67236 11.6259 4.65384 11.6436 4.63617C11.6613 4.6185 11.6798 4.60212 11.699 4.58703L12.8436 3.44242C13.2853 3.00075 13.5269 2.76742 13.8519 2.60908C14.4769 2.29242 15.2436 2.29242 15.8769 2.60908C16.1936 2.75908 16.4353 3.00074 16.8769 3.4424L16.9603 3.52573C17.4603 4.02573 17.7186 4.29235 17.8853 4.61735C18.2019 5.25902 18.2019 6.01741 17.8853 6.65907C17.7103 7.00074 17.4353 7.28402 16.9603 7.75069L15.8827 8.82925C15.8754 8.83726 15.8679 8.84517 15.8603 8.85292C15.8524 8.86076 15.8444 8.86834 15.8363 8.87567L7.25195 17.4673L7.20399 17.5153C6.70932 18.0103 6.43049 18.2893 6.01862 18.4508C5.60203 18.6258 5.19377 18.6258 4.45235 18.6258L4.45195 18.6174ZM14.5383 8.41434L6.36862 16.5841L6.32438 16.6275C5.91337 17.0309 5.72072 17.2199 5.54362 17.2924C5.36036 17.3674 5.09382 17.3674 4.45269 17.3674H3.13529V16.0591C3.13529 15.4175 3.13529 15.1507 3.21029 14.9673C3.28256 14.7988 3.47091 14.6069 3.87974 14.1905L3.92695 14.1424L12.0967 5.97266L14.5383 8.41434ZM15.4218 7.53098L16.0853 6.86741C16.4603 6.49241 16.6936 6.25904 16.7686 6.10071C16.9103 5.81737 16.9103 5.46738 16.7686 5.17572C16.6936 5.03405 16.4769 4.80905 16.1103 4.44238L16.0019 4.33404C15.9549 4.28818 15.9103 4.24442 15.8679 4.20292C15.6183 3.9581 15.4493 3.79227 15.3353 3.74241C15.0353 3.59241 14.6936 3.59241 14.4019 3.74241C14.2603 3.80907 14.0436 4.01738 13.7269 4.34238L12.98 5.0893L15.4218 7.53098ZM15.0019 18.6183H10.0019C9.66025 18.6183 9.37692 18.335 9.37692 17.9933C9.37692 17.6517 9.66025 17.3683 10.0019 17.3683H15.0019C15.3436 17.3683 15.6269 17.6517 15.6269 17.9933C15.6269 18.335 15.3436 18.6183 15.0019 18.6183Z" fill="#010101"/>
</svg>
