<svg width="32" height="32" viewBox="0 0 32 32" fill="none" xmlns="http://www.w3.org/2000/svg">
<path d="M5.67649 7.56212L10.4483 12.3308C10.164 12.8215 10.0013 13.3915 10.0013 13.9993C10.0013 15.8403 11.4937 17.3327 13.3346 17.3327H18.668L18.7878 17.3435C19.0988 17.3999 19.3346 17.672 19.3346 17.9993C19.3346 18.3675 19.0361 18.666 18.668 18.666H11.3346V21.3327H14.668V23.9993H17.3346V21.3327H18.668C18.9102 21.3327 19.1465 21.3068 19.3741 21.2577L24.4385 26.3242C22.1402 28.2046 19.2025 29.3327 16.0013 29.3327C8.6375 29.3327 2.66797 23.3631 2.66797 15.9993C2.66797 12.7981 3.7961 9.86046 5.67649 7.56212ZM16.0013 2.66602C23.365 2.66602 29.3346 8.63555 29.3346 15.9993C29.3346 19.2006 28.2065 22.1383 26.3261 24.4366L21.5549 19.667C21.8388 19.1764 22.0013 18.6068 22.0013 17.9993C22.0013 16.1584 20.5089 14.666 18.668 14.666H13.3346L13.2148 14.6552C12.9038 14.5988 12.668 14.3267 12.668 13.9993C12.668 13.6312 12.9664 13.3327 13.3346 13.3327H20.668V10.666H17.3346V7.99935H14.668V10.666H13.3346C13.0927 10.666 12.8568 10.6918 12.6294 10.7407L7.56408 5.67454C9.86241 3.79415 12.8001 2.66602 16.0013 2.66602Z" fill="white"/>
</svg>
