<svg width="24" height="24" viewBox="0 0 24 24" fill="none" xmlns="http://www.w3.org/2000/svg">
<path d="M2.8048 5.20079L7.00408 8.00031L11.1903 2.13954C11.5113 1.69013 12.1359 1.58604 12.5853 1.90704C12.6751 1.97118 12.7536 2.04974 12.8178 2.13954L17.0041 8.00031L21.2033 5.20079C21.6629 4.89444 22.2837 5.01861 22.5901 5.47814C22.7218 5.67576 22.7789 5.91381 22.7512 6.14968L21.108 20.1171C21.0487 20.6207 20.6219 21.0003 20.1148 21.0003H3.89333C3.38625 21.0003 2.95943 20.6207 2.90018 20.1171L1.25695 6.14968C1.19242 5.60118 1.58476 5.10422 2.13326 5.03969C2.36914 5.01194 2.60719 5.06905 2.8048 5.20079ZM12.0041 15.0003C13.1086 15.0003 14.0041 14.1049 14.0041 13.0003C14.0041 11.8957 13.1086 11.0003 12.0041 11.0003C10.8995 11.0003 10.0041 11.8957 10.0041 13.0003C10.0041 14.1049 10.8995 15.0003 12.0041 15.0003Z" fill="white"/>
</svg>
