 <svg width="21" height="20" viewBox="0 0 21 20" fill="none" xmlns="http://www.w3.org/2000/svg">
<path d="M7.31341 11.5709C6.17758 11.0859 5.19258 10.4142 4.38508 9.73425L2.84341 11.2759C2.72175 11.3976 2.56175 11.4592 2.40175 11.4592H2.40091C2.24091 11.4592 2.08091 11.3984 1.95925 11.2759C1.71508 11.0317 1.71508 10.6359 1.95925 10.3917L3.46258 8.88758C2.49341 7.91841 1.93758 7.09758 1.88175 7.01341C1.69008 6.72591 1.76675 6.33841 2.05425 6.14675C2.34175 5.95508 2.72925 6.03258 2.92091 6.32008C2.95258 6.36675 6.13591 11.0417 10.7342 11.0417C15.3326 11.0417 18.5159 6.36675 18.5476 6.31925C18.7401 6.03258 19.1284 5.95508 19.4151 6.14675C19.7017 6.33841 19.7792 6.72591 19.5884 7.01258C19.5317 7.09675 18.9759 7.91758 18.0059 8.88758L19.5101 10.3917C19.7542 10.6359 19.7542 11.0317 19.5101 11.2759C19.3884 11.3976 19.2284 11.4592 19.0684 11.4592C18.9084 11.4592 18.7476 11.3984 18.6259 11.2759L17.0842 9.73425C16.2767 10.4134 15.2909 11.0859 14.1551 11.5701L15.0201 13.0117C15.1976 13.3076 15.1017 13.6917 14.8059 13.8692C14.7051 13.9292 14.5942 13.9584 14.4851 13.9584C14.2726 13.9584 14.0659 13.8501 13.9484 13.6551L12.9501 11.9909C12.2551 12.1801 11.5151 12.2909 10.7342 12.2909V12.2917C9.95425 12.2917 9.21341 12.1809 8.51841 11.9917L7.52008 13.6551C7.40258 13.8501 7.19591 13.9584 6.98341 13.9584C6.87425 13.9584 6.76341 13.9301 6.66258 13.8692C6.36675 13.6917 6.27091 13.3076 6.44841 13.0117L7.31341 11.5709Z" fill="#52525B"/>
</svg>
