<svg width="24" height="24" viewBox="0 0 24 24" fill="none" xmlns="http://www.w3.org/2000/svg">
<path d="M11.6856 3.25023C11.7518 3.76372 11.75 4.41978 11.75 5.19652V18.863C11.7501 19.614 11.7501 20.2498 11.6856 20.7503C11.6177 21.2766 11.4638 21.7901 11.0469 22.1848C10.925 22.3003 10.79 22.4021 10.6455 22.4876C10.1515 22.7798 9.61551 22.7866 9.09082 22.7073C8.59101 22.6317 7.97828 22.4567 7.25444 22.2499L7.15467 22.2214C6.42536 22.0131 5.82293 21.841 5.34571 21.6497C4.84345 21.4484 4.41444 21.2011 4.06641 20.8079C3.95412 20.681 3.85191 20.5454 3.76075 20.4026C3.47826 19.9601 3.35838 19.4798 3.30274 18.9417C3.24995 18.4311 3.24998 17.8059 3.25 17.0492V6.95129C3.24998 6.19456 3.24995 5.56936 3.30274 5.05883C3.35838 4.52072 3.47826 4.04045 3.76075 3.59789C3.85191 3.45509 3.95412 3.31948 4.06641 3.19261C4.41444 2.79939 4.84345 2.55215 5.34571 2.35082C5.82293 2.15952 6.42537 1.98745 7.15469 1.77914L7.20118 1.76586C7.94827 1.55244 8.57879 1.37061 9.09082 1.2932C9.61551 1.21392 10.1515 1.22073 10.6455 1.51293C10.79 1.59843 10.925 1.70024 11.0469 1.81566C11.4638 2.21042 11.6177 2.7239 11.6856 3.25023Z" fill="#AF8E42"/>
<path d="M16.8487 16.7549C16.2991 16.7005 15.8094 17.1019 15.7549 17.6514C15.6993 18.2122 15.5911 18.3696 15.5059 18.4541C15.4276 18.5317 15.2878 18.627 14.8487 18.6856C14.3808 18.748 13.7455 18.75 12.7666 18.75H10.75C10.1977 18.75 9.75 19.1978 9.75 19.75C9.75 20.3023 10.1977 20.75 10.75 20.75H12.7666C13.6894 20.75 14.4816 20.7521 15.1123 20.668C15.7709 20.5802 16.4016 20.3822 16.9141 19.8741C17.4876 19.3054 17.6718 18.5879 17.7451 17.8487C17.7996 17.2991 17.3982 16.8094 16.8487 16.7549ZM10.75 3.25C10.1977 3.25 9.75 3.69772 9.75 4.25C9.75 4.80229 10.1977 5.25 10.75 5.25H12.7666C13.7455 5.25 14.3808 5.25209 14.8487 5.31446C15.2878 5.37305 15.4276 5.46833 15.5059 5.5459C15.5911 5.63044 15.6993 5.78785 15.7549 6.34864C15.8094 6.89819 16.2991 7.29959 16.8487 7.24512C17.3982 7.1906 17.7996 6.70092 17.7451 6.15137C17.6718 5.41211 17.4876 4.69462 16.9141 4.12598C16.4016 3.61788 15.7709 3.41983 15.1123 3.33203C14.4816 3.24797 13.6894 3.25 12.7666 3.25H10.75Z" fill="#AF8E42"/>
<path d="M19.8428 8.6944C19.3982 8.36727 18.7728 8.46278 18.4453 8.90729C18.1178 9.35198 18.2126 9.97724 18.6573 10.3048C18.722 10.3537 18.913 10.4983 19.0254 10.586C19.1727 10.701 19.3494 10.8445 19.5371 11.0001H14.25C13.6978 11.0001 13.2501 11.4478 13.25 12.0001C13.25 12.5524 13.6977 13.0001 14.25 13.0001H19.5371C19.3494 13.1557 19.1727 13.2992 19.0254 13.4142C18.913 13.5019 18.6429 13.711 18.5782 13.7599C18.2024 14.1001 18.1383 14.6759 18.4453 15.0929C18.7728 15.5374 19.3982 15.6329 19.8428 15.3058C19.9147 15.2514 20.134 15.0855 20.2559 14.9903C20.4986 14.8009 20.8254 14.5385 21.1553 14.2521C21.4802 13.97 21.8311 13.645 22.1084 13.3312C22.2461 13.1753 22.3873 12.998 22.4991 12.8126C22.5943 12.6546 22.75 12.3607 22.75 12.0001C22.75 11.6395 22.5943 11.3456 22.4991 11.1876C22.3873 11.0022 22.2461 10.8249 22.1084 10.669C21.8311 10.3552 21.4802 10.0302 21.1553 9.74811C20.8254 9.46167 20.4986 9.19925 20.2559 9.00983C20.134 8.9147 19.9147 8.74874 19.8428 8.6944Z" fill="#AF8E42"/>
</svg>
