<svg width="24" height="24" viewBox="0 0 24 24" fill="none" xmlns="http://www.w3.org/2000/svg">
<path fill-rule="evenodd" clip-rule="evenodd" d="M19.9445 6.05545C19.4891 5.59998 18.9223 5.41431 18.2945 5.32991C17.6997 5.24994 16.9505 5.24997 16.052 5.25H4C3.58579 5.25 3.25 5.58578 3.25 6V18.052C3.24997 18.9505 3.24995 19.6997 3.32991 20.2944C3.41432 20.9222 3.59999 21.489 4.05546 21.9445C4.51093 22.4 5.07773 22.5856 5.70552 22.67C6.30031 22.75 7.04953 22.75 7.94801 22.75H16.052C16.9505 22.75 17.6997 22.75 18.2945 22.67C18.9223 22.5856 19.4891 22.4 19.9445 21.9445C20.4 21.489 20.5857 20.9222 20.6701 20.2944C20.7501 19.6997 20.75 18.9504 20.75 18.052V9.94801C20.75 9.04952 20.7501 8.3003 20.6701 7.70552C20.5857 7.07773 20.4 6.51092 19.9445 6.05545ZM8 17.25C7.58579 17.25 7.25 17.5857 7.25 18C7.25 18.4142 7.58579 18.75 8 18.75H16C16.4142 18.75 16.75 18.4142 16.75 18C16.75 17.5857 16.4142 17.25 16 17.25H8ZM12.75 10C12.75 9.58578 12.4142 9.25 12 9.25C11.5858 9.25 11.25 9.58578 11.25 10V10.325C9.78065 10.6232 8.62328 11.7806 8.32501 13.25H8C7.58579 13.25 7.25 13.5857 7.25 14C7.25 14.4142 7.58579 14.75 8 14.75H16C16.4142 14.75 16.75 14.4142 16.75 14C16.75 13.5857 16.4142 13.25 16 13.25H15.675C15.3767 11.7806 14.2193 10.6232 12.75 10.325V10Z" fill="white"/>
<path d="M6.83203 4.00001H16.7085C16.7042 3.94411 16.6994 3.8896 16.694 3.83648C16.6374 3.27096 16.5146 2.74403 16.1813 2.30796C15.8126 1.82538 15.295 1.47808 14.7086 1.32096C14.1778 1.17872 13.6445 1.26793 13.1027 1.43313C12.5719 1.59498 11.9245 1.86624 11.1321 2.19826L6.83203 4.00001Z" fill="white"/>
</svg>
