<svg width="24" height="24" viewBox="0 0 24 24" fill="none" xmlns="http://www.w3.org/2000/svg">
<path d="M19.944 6.05486C20.4 6.51086 20.586 7.07786 20.67 7.70586C20.75 8.29986 20.75 9.04785 20.75 9.94485V18.0549C20.75 18.9519 20.75 19.6999 20.67 20.2949C20.586 20.9219 20.4 21.4889 19.944 21.9439C19.489 22.3999 18.922 22.5859 18.294 22.6699C17.7 22.7499 16.952 22.7499 16.055 22.7499H7.944C7.047 22.7499 6.299 22.7499 5.705 22.6699C5.078 22.5859 4.511 22.3999 4.055 21.9439C3.6 21.4889 3.414 20.9219 3.33 20.2949C3.25 19.6999 3.25 18.9509 3.25 18.0519V5.99986C3.25 5.68086 3.449 5.40786 3.73 5.29986L11.133 2.19786C11.925 1.86586 12.573 1.59486 13.103 1.43286C13.645 1.26786 14.178 1.17886 14.709 1.32086C15.296 1.47786 15.813 1.82486 16.182 2.30786C16.515 2.74386 16.638 3.27086 16.695 3.83586C16.734 4.22686 16.745 4.70986 16.749 5.25186C17.345 5.25586 17.861 5.27186 18.294 5.32986C18.922 5.41386 19.489 5.59986 19.944 6.05486ZM16 6.74986H4.75V17.9999C4.75 18.9639 4.751 19.6119 4.816 20.0949C4.878 20.5559 4.986 20.7539 5.116 20.8839C5.246 21.0139 5.444 21.1209 5.905 21.1839C6.388 21.2479 7.036 21.2499 8 21.2499H16C16.964 21.2499 17.611 21.2479 18.094 21.1839C18.556 21.1209 18.753 21.0139 18.884 20.8839C19.014 20.7539 19.121 20.5559 19.183 20.0949C19.248 19.6119 19.25 18.9639 19.25 17.9999V9.99986C19.25 9.03586 19.248 8.38786 19.183 7.90486C19.121 7.44386 19.014 7.24586 18.884 7.11586C18.753 6.98586 18.556 6.87886 18.094 6.81686C17.611 6.75186 16.964 6.74986 16 6.74986ZM12 9.24986C12.414 9.24986 12.75 9.58586 12.75 9.99986V10.3249C14.219 10.6229 15.377 11.7809 15.675 13.2499H16C16.414 13.2499 16.75 13.5859 16.75 13.9999C16.75 14.4139 16.414 14.7499 16 14.7499H8C7.586 14.7499 7.25 14.4139 7.25 13.9999C7.25 13.5859 7.586 13.2499 8 13.2499H8.325C8.623 11.7809 9.781 10.6229 11.25 10.3249V9.99986C11.25 9.58586 11.586 9.24986 12 9.24986ZM8 17.2499H16C16.414 17.2499 16.75 17.5859 16.75 17.9999C16.75 18.4139 16.414 18.7499 16 18.7499H8C7.586 18.7499 7.25 18.4139 7.25 17.9999C7.25 17.5859 7.586 17.2499 8 17.2499ZM7.731 5.24986H15.249C15.245 4.72186 15.235 4.31486 15.202 3.98586C15.155 3.51786 15.071 3.32486 14.99 3.21886C14.822 2.99786 14.586 2.84086 14.321 2.76986C14.195 2.73586 13.988 2.73186 13.541 2.86786C13.091 3.00486 12.514 3.24586 11.675 3.59786L7.731 5.24986ZM14.122 13.2499C13.813 12.3759 12.98 11.7499 12 11.7499C11.02 11.7499 10.187 12.3759 9.878 13.2499H14.122Z" fill="#A1A1AA"/>
</svg>
