<svg width="48" height="48" viewBox="0 0 48 48" fill="none" xmlns="http://www.w3.org/2000/svg">
<g clip-path="url(#clip0_768_2031)">
<path d="M21.5712 8.83233C21.4575 8.8325 21.3454 8.80587 21.2439 8.75459C21.1425 8.70331 21.0545 8.62884 20.9872 8.53721C20.3285 7.64227 19.1565 6.61561 17.3121 6.81258C15.1408 7.04386 13.5283 6.35283 12.5578 5.73249C12.3983 5.62798 12.2865 5.4648 12.2465 5.27836C12.2066 5.09192 12.2418 4.89725 12.3445 4.73659C12.4472 4.57593 12.6091 4.46224 12.795 4.42018C12.981 4.37813 13.1761 4.4111 13.3379 4.51196C14.1131 5.00733 15.4053 5.55924 17.1588 5.37211C19.8201 5.08955 21.4307 6.69567 22.1539 7.67864C22.2333 7.78649 22.2813 7.91423 22.2924 8.04768C22.3036 8.18113 22.2775 8.31506 22.2171 8.43459C22.1568 8.55412 22.0644 8.65457 21.9504 8.72478C21.8364 8.795 21.7051 8.83222 21.5712 8.83233Z" fill="#FFD064"/>
<path d="M13.9893 12.6784C13.8557 12.6785 13.7247 12.6414 13.611 12.5713C13.5299 12.5215 13.4595 12.4563 13.4036 12.3793C13.3478 12.3023 13.3076 12.2151 13.2855 12.1225C13.2634 12.03 13.2597 11.9341 13.2746 11.8401C13.2896 11.7462 13.3229 11.6561 13.3727 11.5751C14.3011 10.0626 16.0025 9.02312 18.293 8.569C19.963 8.23797 21.3643 8.32862 21.423 8.33275C21.5179 8.33925 21.6106 8.36438 21.6958 8.4067C21.7809 8.44902 21.8569 8.50771 21.9194 8.57941C21.9819 8.65111 22.0297 8.73442 22.06 8.82458C22.0903 8.91474 22.1025 9.00998 22.096 9.10487C22.0687 9.50369 21.7222 9.80275 21.3247 9.778C21.2745 9.77462 16.3564 9.48306 14.6072 12.3329C14.5424 12.4386 14.4516 12.5259 14.3434 12.5864C14.2352 12.6469 14.1132 12.6786 13.9893 12.6784Z" fill="#FFD064"/>
<path d="M24.9053 40.4322C36.8004 40.4322 43.3777 22.9844 24.5935 9.5085C24.1262 9.17325 23.8487 8.63353 23.855 8.05847C23.8609 7.58344 24.0102 7.12128 24.2833 6.73256C25.1626 5.47678 26.4284 3.32859 27.1875 1.59834C27.3693 1.18397 27.1092 0.738281 26.6229 0.738281C25.4946 0.738375 25.4946 0 24.3663 0C23.238 0 23.238 0.738375 22.1097 0.738375C21.1482 0.738375 20.7537 -0.088875 20.2862 0.512812C18.9229 2.26744 23.5924 8.43778 23.5924 8.43778C2.96985 21.995 9.61926 40.4323 21.7951 40.4323H24.9053V40.4322Z" fill="#EABC6B"/>
<path d="M29.5837 8.43769C29.5837 8.43769 34.3225 2.28731 32.9598 0.523031C32.4954 -0.0782813 32.0994 0.738375 31.1389 0.738375C30.0105 0.738281 30.0105 0 28.882 0C27.7536 0 27.7536 0.738281 26.6253 0.738281C26.5697 0.738281 26.5189 0.735187 26.4686 0.731719C26.0152 2.67516 23.9721 5.70281 22.803 7.32394C23.2634 7.99959 23.5949 8.43759 23.5949 8.43759C23.3231 8.61652 23.0532 8.79828 22.7852 8.98284C42.4887 22.5259 35.8958 40.4321 23.8455 40.4321H31.454C43.6667 40.4322 50.275 22.04 29.5837 8.43769Z" fill="#E8AE4D"/>
<path d="M30.4656 10.6244C27.7121 11.3199 24.9917 11.3199 22.2377 10.6244C21.2792 10.3824 20.7359 9.30454 21.0808 8.32476L21.0923 8.29185C21.3815 7.47041 22.2017 7.00945 23.0056 7.21129C25.2603 7.77735 27.4423 7.77754 29.6976 7.21129C30.5015 7.00945 31.3217 7.47041 31.611 8.29185L31.6225 8.32476C31.9675 9.30454 31.4241 10.3824 30.4656 10.6244Z" fill="#FFE07D"/>
<path d="M4.57422 43.5963L15.0607 47.4995C15.9513 47.831 16.894 48.0007 17.8443 48.0007H28.6515C30.1639 48.0008 31.6451 47.571 32.9226 46.7615L46.4542 38.1871C47.347 37.3943 47.5125 36.0622 46.8408 35.0751C46.1059 33.9951 44.8903 33.8074 43.5526 34.4399L30.3782 40.2406L30.3938 38.1032C30.2193 36.3487 28.8685 34.9407 27.1229 34.6938L19.1001 33.7701C17.2494 33.5082 16.3247 32.888 14.7112 31.9442C12.5085 30.6557 10.0026 29.9766 7.45075 29.9766H4.57422V43.5963Z" fill="#FFDDCE"/>
<path d="M14.4239 45.4197C15.3602 45.7682 16.3512 45.9467 17.3502 45.9467H28.7114C29.9164 45.9465 31.1073 45.6866 32.2029 45.1848L40.1472 40.1508C40.8853 39.6831 41.3538 38.8689 41.3298 37.9955C41.3169 37.5184 41.167 37.0552 40.8981 36.6609C40.8981 36.6609 40.6563 36.2465 40.4077 35.8246L30.3783 40.2406L30.3938 38.1032C30.2193 36.3487 28.8685 34.9407 27.1229 34.6938L19.1001 33.7701C17.2494 33.5082 16.3247 32.888 14.7112 31.9442C12.5085 30.6557 10.0026 29.9766 7.45075 29.9766H4.57422V41.7535L14.4239 45.4197Z" fill="#FFDDCE"/>
<path d="M46.8408 35.0751C46.1058 33.9951 44.8902 33.8074 43.5525 34.4399L39.9288 36.0355C40.1043 36.3132 40.2438 36.535 40.2438 36.535C40.9155 37.5221 40.75 38.8542 39.8572 39.647L31.9726 44.6431C30.9304 45.1205 29.7976 45.3677 28.6513 45.3679H17.8443C16.894 45.3679 15.9513 45.1981 15.0607 44.8666L4.57422 40.9633V43.5962L15.0607 47.4995C15.9513 47.831 16.894 48.0008 17.8443 48.0008H28.6516C30.164 48.0008 31.6452 47.571 32.9227 46.7615L46.4543 38.1871C47.3469 37.3944 47.5125 36.0621 46.8408 35.0751Z" fill="#FFCBBE"/>
<path d="M29.4105 35.9004L29.4102 35.952L29.4442 35.937C29.4331 35.9246 29.4217 35.9127 29.4105 35.9004Z" fill="#F5DBCC"/>
<path d="M30.377 40.2377H22.1852C21.7852 40.2377 21.4609 39.9135 21.4609 39.5134C21.4609 39.1132 21.7851 38.7891 22.1852 38.7891H30.3876L30.377 40.2377Z" fill="#FFCBBE"/>
<path d="M6.83025 45.6842C6.83025 46.445 6.21347 47.0618 5.45259 47.0618H2.12766C1.36678 47.0618 0.75 46.445 0.75 45.6842V28.8152C0.75 28.0543 1.36678 27.4375 2.12766 27.4375H5.45259C6.21347 27.4375 6.83025 28.0543 6.83025 28.8152V45.6842Z" fill="#407093"/>
<path d="M28.1821 22.4463C27.8744 22.3379 27.5682 22.2253 27.2636 22.1086V17.4905C28.1202 17.6325 28.6346 18.0757 28.6722 18.1091C28.8137 18.2377 29.0003 18.3052 29.1913 18.2968C29.3823 18.2884 29.5622 18.2048 29.6918 18.0642C29.7563 17.9943 29.8064 17.9124 29.8392 17.8231C29.872 17.7338 29.8869 17.639 29.8831 17.5439C29.8793 17.4489 29.8567 17.3555 29.8168 17.2692C29.7769 17.1829 29.7204 17.1052 29.6504 17.0408C29.5995 16.9936 28.7125 16.1945 27.2635 16.0276V14.9977C27.2635 14.5977 26.9393 14.2734 26.5392 14.2734C26.139 14.2734 25.8148 14.5976 25.8148 14.9977V16.0863C25.6336 16.1208 25.4542 16.1646 25.2775 16.2176C24.0488 16.5877 23.1304 17.6412 22.8806 18.9669C22.6539 20.1699 23.0353 21.3269 23.876 21.9863C24.3586 22.3649 24.9663 22.7115 25.8148 23.082V28.8103C24.9766 28.7752 24.4618 28.6173 23.5621 28.0288C23.4825 27.9767 23.3935 27.9409 23.3 27.9232C23.2065 27.9056 23.1105 27.9065 23.0174 27.926C22.9243 27.9455 22.836 27.9831 22.7574 28.0367C22.6789 28.0903 22.6116 28.1588 22.5596 28.2384C22.5075 28.318 22.4716 28.4071 22.454 28.5006C22.4363 28.594 22.4373 28.69 22.4567 28.7831C22.4762 28.8762 22.5138 28.9646 22.5674 29.0431C22.621 29.1217 22.6896 29.1889 22.7692 29.241C23.9516 30.0145 24.742 30.2163 25.8148 30.258V31.4077C25.8148 31.8078 26.139 32.1321 26.5392 32.1321C26.9393 32.1321 27.2635 31.8079 27.2635 31.4077V30.2071C29.2967 29.8772 30.4832 28.2314 30.7412 26.6962C31.0639 24.7779 30.0592 23.1098 28.1821 22.4463ZM24.77 20.8464C24.3565 20.5222 24.1781 19.9047 24.3043 19.2352C24.4212 18.6143 24.8481 17.8598 25.6954 17.6047C25.7357 17.5925 25.7754 17.582 25.815 17.5714V21.4838C25.3812 21.2674 25.0411 21.0591 24.77 20.8464ZM29.3128 26.4558C29.153 27.4063 28.4553 28.4211 27.2636 28.7265V23.6552C27.4045 23.7068 27.5485 23.7588 27.6992 23.812C29.5017 24.4492 29.39 25.9967 29.3128 26.4558Z" fill="white"/>
</g>
<defs>
<clipPath id="clip0_768_2031">
<rect width="48" height="48" fill="white"/>
</clipPath>
</defs>
</svg>
