<svg width="32" height="32" viewBox="0 0 32 32" fill="none" xmlns="http://www.w3.org/2000/svg">
<path d="M16.0052 29.3365C8.64142 29.3365 2.67188 23.3671 2.67188 16.0032C2.67188 8.63946 8.64142 2.66992 16.0052 2.66992C23.369 2.66992 29.3386 8.63946 29.3386 16.0032C29.3386 23.3671 23.369 29.3365 16.0052 29.3365ZM11.3385 18.6699V21.3365H14.6719V24.0032H17.3386V21.3365H18.6719C20.5128 21.3365 22.0052 19.8443 22.0052 18.0032C22.0052 16.1623 20.5128 14.6699 18.6719 14.6699H13.3386C12.9704 14.6699 12.6719 14.3715 12.6719 14.0032C12.6719 13.6351 12.9704 13.3365 13.3386 13.3365H20.6719V10.6699H17.3386V8.00326H14.6719V10.6699H13.3386C11.4976 10.6699 10.0052 12.1623 10.0052 14.0032C10.0052 15.8443 11.4976 17.3365 13.3386 17.3365H18.6719C19.04 17.3365 19.3386 17.6351 19.3386 18.0032C19.3386 18.3715 19.04 18.6699 18.6719 18.6699H11.3385Z" fill="white"/>
</svg>
