<svg width="40" height="40" viewBox="0 0 40 40" fill="none" xmlns="http://www.w3.org/2000/svg">
<path d="M3.38555 19V19.5309L2.73828 19.3164L3.38555 19Z" fill="#49E4A3"/>
<path d="M25.6758 28.0701V35.361L36.9591 27.241V20.0879L25.6758 28.0701Z" fill="#28AF6E"/>
<path d="M37.456 19.7363L26.8691 27.2261L3.38542 19.5305V15.1359L7.91451 16.6559C7.91451 16.6559 3.82433 14.5029 2.54688 13.4741V10.8887C2.54688 10.8887 9.40869 17.1839 26.2316 21.1054L36.3472 13.525V15.0581L37.3516 15.2909L37.456 19.7363Z" fill="#28AF6E"/>
<path d="M12.6996 16.7441V22.5805L15.961 23.6496V18.0467C14.8629 17.6402 13.7756 17.2059 12.6996 16.7441Z" fill="#FFCA6C"/>
<path d="M2.73828 19.3164V26.1091L25.6757 35.36V28.0699L2.73828 19.3164Z" fill="#39C988"/>
<path d="M12.7148 23.123V30.1325L16.0348 31.4718V24.3903L12.7148 23.123Z" fill="#FFCA6C"/>
<path d="M26.868 27.225L25.6738 28.0701L2.73669 19.317L26.868 27.225ZM36.3469 13.5243L26.2305 21.1061C22.4014 20.1715 18.9614 19.1461 15.9105 18.0443C14.8053 17.6468 13.7104 17.2212 12.6269 16.7679C8.28142 14.9497 4.91415 12.9606 2.54688 10.8879C6.60506 8.14244 10.6887 6.07699 14.8014 4.64062C18.0814 7.3239 21.8341 9.21372 25.7869 10.6443C28.8051 11.7352 32.2851 12.6915 36.3469 13.5243Z" fill="#49E4A3"/>
<path d="M25.4657 19.8297C16.5152 17.569 9.51736 14.7112 5.00391 11.4854C5.08425 11.4354 5.15101 11.3663 5.19828 11.2843C5.24554 11.2023 5.27185 11.1099 5.27487 11.0154C5.27789 10.9208 5.25753 10.8269 5.21559 10.7421C5.17366 10.6572 5.11144 10.584 5.03445 10.529C7.97045 8.70246 10.9715 7.20428 13.993 6.05664C14.1486 6.17393 14.3315 6.24977 14.5245 6.27706C14.7175 6.30434 14.9142 6.28218 15.0963 6.21264C19.5039 9.5421 25.0599 11.9414 32.6712 13.7854C32.2821 14.0766 32.4083 14.6894 32.8806 14.8039L26.4352 19.6345C26.2692 19.5928 26.0961 19.5886 25.9284 19.6224C25.7606 19.6562 25.6026 19.727 25.4657 19.8297ZM37.4541 19.7359L26.8672 27.2257V23.1545L37.3497 15.2912L37.4541 19.7359ZM36.345 13.5246V15.0581L26.2301 22.5632V21.1054L36.345 13.5246Z" fill="#39C988"/>
<path d="M37.3505 15.2917L26.8679 23.155L26.2305 22.5637L36.3461 15.0586L37.3505 15.2917Z" fill="#49E4A3"/>
<path d="M7.91581 16.6545L3.38672 15.1345L4.37763 14.6777C4.37763 14.6777 6.83945 16.1377 7.91581 16.6545Z" fill="#39C988"/>
<path d="M36.9559 20.0879V23.5159L26.8672 27.2257L36.9559 20.0879Z" fill="#189453"/>
<path d="M22.9928 11.9383C22.9928 11.9383 25.3699 13.4034 21.4659 15.0314C17.5619 16.6594 15.8859 15.4972 15.4761 14.7783C15.2725 14.4219 15.2776 12.7914 17.6165 11.7797C19.9554 10.7681 22.1645 11.3579 22.9928 11.9383ZM27.1372 16.9259C25.4885 17.6132 24.7808 17.123 24.6077 16.8194C24.5219 16.6688 24.5237 15.9801 25.5117 15.5528C27.2019 14.8219 29.3394 16.0074 27.1372 16.9259ZM10.3067 10.715C10.3067 10.715 9.30265 10.0965 10.9514 9.40882C12.5997 8.72155 13.3077 9.2121 13.4808 9.51573C13.5667 9.66628 13.5645 10.355 12.5768 10.7819C11.5892 11.2088 10.6561 10.9601 10.3067 10.715Z" fill="#49E4A3"/>
<path d="M25.7889 10.645L15.9125 18.045C14.8073 17.6475 13.7124 17.2219 12.6289 16.7687L22.5453 9.33594C23.5635 9.79412 24.6435 10.2305 25.7889 10.645ZM13.2147 22.7505L12.7147 23.1247C13.7547 23.561 14.8765 23.981 16.0256 24.3956L16.6976 23.8923L13.2147 22.7505Z" fill="#FFDE9B"/>
</svg>
