<svg width="32" height="32" viewBox="0 0 32 32" fill="none" xmlns="http://www.w3.org/2000/svg">
<path d="M21.3346 1.33398C22.071 1.33398 22.668 1.93094 22.668 2.66732V3.99932L29.3346 4.00065V12.0007L26.6413 11.9993L30.3302 22.1277C30.5486 22.71 30.668 23.3408 30.668 23.9993C30.668 26.9449 28.2801 29.3327 25.3346 29.3327C22.8504 29.3327 20.7628 27.6341 20.17 25.3351H14.4997C13.9073 27.6348 11.8194 29.334 9.33464 29.334C6.74148 29.334 4.58057 27.4833 4.10068 25.0307C3.24874 24.586 2.66797 23.6945 2.66797 22.6673V16.0007H14.668C14.668 16.6844 15.1826 17.248 15.8458 17.3251L16.0013 17.334H18.668C19.3517 17.334 19.9153 16.8193 19.9924 16.1561L20.0013 16.0007V4.00065H16.0013V1.33398H21.3346ZM9.33464 21.334C7.86188 21.334 6.66797 22.5279 6.66797 24.0007C6.66797 25.4735 7.86188 26.6673 9.33464 26.6673C10.8074 26.6673 12.0013 25.4735 12.0013 24.0007C12.0013 22.5279 10.8074 21.334 9.33464 21.334ZM25.3346 21.334C23.8618 21.334 22.668 22.5279 22.668 24.0007C22.668 25.4735 23.8618 26.6673 25.3346 26.6673C26.8074 26.6673 28.0013 25.4735 28.0013 24.0007C28.0013 22.5279 26.8074 21.334 25.3346 21.334ZM13.3346 4.00065C14.071 4.00065 14.668 4.59761 14.668 5.33398V14.6673H2.66797V5.33398C2.66797 4.59761 3.26493 4.00065 4.0013 4.00065H13.3346ZM26.668 6.66732H22.668V9.33398H26.668V6.66732ZM12.0013 6.66732H5.33464V8.00065H12.0013V6.66732Z" fill="white"/>
</svg>
