<svg width="20" height="20" viewBox="0 0 20 20" fill="none" xmlns="http://www.w3.org/2000/svg">
<path d="M2.8125 2.5C1.94917 2.5 1.25 3.2 1.25 4.0625V4.6875C1.25 5.55083 1.95 6.25 2.8125 6.25H17.1875C18.05 6.25 18.75 5.55 18.75 4.6875V4.0625C18.75 3.19917 18.05 2.5 17.1875 2.5H2.8125Z" fill="#4452E7"/>
<path fill-rule="evenodd" clip-rule="evenodd" d="M2.57422 7.5L3.02422 15.1467C3.06161 15.783 3.34063 16.3809 3.80423 16.8184C4.26783 17.2558 4.881 17.4996 5.51839 17.5H14.4826C15.1202 17.5 15.7338 17.2564 16.1978 16.8189C16.6617 16.3815 16.941 15.7832 16.9784 15.1467L17.4292 7.5H2.57422ZM10.0017 8.75C10.1675 8.75 10.3264 8.81585 10.4437 8.93306C10.5609 9.05027 10.6267 9.20924 10.6267 9.375V13.4917L12.0601 12.0583C12.1173 11.9969 12.1863 11.9477 12.2629 11.9135C12.3396 11.8794 12.4224 11.861 12.5063 11.8595C12.5902 11.858 12.6736 11.8735 12.7514 11.9049C12.8292 11.9363 12.8999 11.9831 12.9593 12.0425C13.0186 12.1018 13.0654 12.1725 13.0968 12.2503C13.1283 12.3282 13.1437 12.4115 13.1422 12.4954C13.1407 12.5794 13.1224 12.6621 13.0882 12.7388C13.054 12.8154 13.0048 12.8844 12.9434 12.9417L10.4434 15.4417C10.3262 15.5587 10.1673 15.6244 10.0017 15.6244C9.83609 15.6244 9.67724 15.5587 9.56005 15.4417L7.06005 12.9417C6.99865 12.8844 6.94939 12.8154 6.91523 12.7388C6.88107 12.6621 6.86271 12.5794 6.86123 12.4954C6.85975 12.4115 6.87518 12.3282 6.90662 12.2503C6.93805 12.1725 6.98484 12.1018 7.04419 12.0425C7.10354 11.9831 7.17423 11.9363 7.25205 11.9049C7.32988 11.8735 7.41323 11.858 7.49715 11.8595C7.58107 11.861 7.66383 11.8794 7.7405 11.9135C7.81717 11.9477 7.88617 11.9969 7.94339 12.0583L9.37672 13.4917V9.375C9.37672 9.20924 9.44257 9.05027 9.55978 8.93306C9.67699 8.81585 9.83596 8.75 10.0017 8.75Z" fill="#4452E7"/>
</svg>
