<svg width="40" height="40" viewBox="0 0 40 40" fill="none" xmlns="http://www.w3.org/2000/svg">
<path d="M36.4648 30.1978C36.4645 30.6987 36.2669 31.179 35.9153 31.5332C35.5637 31.8874 35.087 32.0865 34.5898 32.0868H5.40234C4.90516 32.0865 4.42844 31.8874 4.07688 31.5332C3.72533 31.179 3.52767 30.6987 3.52734 30.1978C3.26047 29.9277 36.7211 29.9302 36.4648 30.1978ZM35.6211 12.2776H26.8711C26.3747 12.2806 25.8995 12.4805 25.5485 12.8342C25.1975 13.1878 24.999 13.6665 24.9961 14.1666V14.7963H37.4961V14.1666C37.4946 13.6661 37.2966 13.1865 36.9453 12.8325C36.594 12.4786 36.1179 12.2791 35.6211 12.2776ZM36.8711 28.7937H35.8836C35.613 28.7899 4.37422 28.8 4.10859 28.7937H3.12109C2.95533 28.7937 2.79636 28.7274 2.67915 28.6093C2.56194 28.4912 2.49609 28.331 2.49609 28.164C2.49609 27.997 2.56194 27.8369 2.67915 27.7188C2.79636 27.6007 2.95533 27.5344 3.12109 27.5344H3.55859C3.7044 23.7862 5.10687 20.1985 7.53713 17.3567C9.96738 14.5149 13.2819 12.5869 16.9398 11.8872C16.7749 11.4366 16.7101 10.955 16.75 10.4764C16.7899 9.99781 16.9335 9.53385 17.1706 9.11723C17.4078 8.7006 17.7328 8.34144 18.1226 8.06507C18.5125 7.78869 18.9578 7.60183 19.4272 7.51765C19.8965 7.43346 20.3785 7.454 20.8391 7.57782C21.2997 7.70165 21.7277 7.92573 22.093 8.23429C22.4583 8.54286 22.752 8.92838 22.9534 9.3637C23.1548 9.79902 23.259 10.2735 23.2586 10.7538C23.2597 11.1412 23.1898 11.5254 23.0523 11.8872C23.5163 11.9682 23.9754 12.0754 24.4273 12.2083C23.9851 12.7636 23.7447 13.4546 23.7461 14.1666V22.9819C23.7464 23.8168 24.0758 24.6174 24.6618 25.2077C25.2477 25.7981 26.0424 26.1299 26.8711 26.1302C26.9605 26.0994 36.6211 26.2114 36.3086 26.0484C36.3711 26.5395 36.4148 27.0369 36.4336 27.5344H36.8711C37.0369 27.5344 37.1958 27.6007 37.313 27.7188C37.4302 27.8369 37.4961 27.997 37.4961 28.164C37.4961 28.331 37.4302 28.4912 37.313 28.6093C37.1958 28.7274 37.0369 28.7937 36.8711 28.7937ZM19.9961 8.7263C19.6498 8.72553 19.3093 8.81497 19.0075 8.98594C18.7057 9.15691 18.4529 9.40359 18.2736 9.70204C18.0944 10.0005 17.9947 10.3406 17.9844 10.6892C17.9742 11.0379 18.0535 11.3834 18.2148 11.692C19.3985 11.5567 20.5936 11.5567 21.7773 11.692C21.9347 11.3829 22.011 11.0383 21.9989 10.6911C21.9868 10.3439 21.8868 10.0056 21.7082 9.70835C21.5297 9.41111 21.2787 9.16483 20.979 8.99293C20.6793 8.82104 20.3409 8.72925 19.9961 8.7263ZM24.9961 22.9819C24.9976 23.4824 25.1956 23.962 25.5469 24.316C25.8982 24.6699 26.3743 24.8694 26.8711 24.8709H35.6211C36.1173 24.8674 36.5922 24.6673 36.9431 24.3138C37.294 23.9603 37.4927 23.4818 37.4961 22.9819V16.0556H24.9961V22.9819Z" fill="url(#paint0_linear_681_1381)"/>
<defs>
<linearGradient id="paint0_linear_681_1381" x1="2.50609" y1="19.7769" x2="37.4961" y2="19.7769" gradientUnits="userSpaceOnUse">
<stop stop-color="#FFDE00"/>
<stop offset="1" stop-color="#FD5900"/>
</linearGradient>
</defs>
</svg>
