<svg width="48" height="48" viewBox="0 0 48 48" fill="none" xmlns="http://www.w3.org/2000/svg">
<g clip-path="url(#clip0_681_1518)">
<path d="M25.2908 0H22.5747L21.1057 6.01045H9.48201L8.01305 0H5.29704C3.64274 0 2.29688 1.34577 2.29688 3.00007V44.9999C2.29688 46.6542 3.64274 48 5.29695 48H25.2907C26.8086 48 28.0667 46.8669 28.2638 45.4022C18.5531 44.6676 10.8764 36.5313 10.8764 26.6358C10.8764 16.7311 18.5672 8.58884 28.2907 7.86725V3.00007C28.2908 1.34577 26.945 0 25.2908 0Z" fill="#AF8E42"/>
<path d="M18.8997 3.19798L19.6812 0H10.9102L11.6917 3.19798H18.8997ZM29.6989 10.6275C20.872 10.6275 13.6909 17.8088 13.6909 26.6357C13.6909 35.4625 20.872 42.6437 29.6989 42.6437C38.5258 42.6437 45.7071 35.4625 45.7071 26.6357C45.7071 17.8088 38.5258 10.6275 29.6989 10.6275ZM18.3768 32.6699V29.8575H20.8431V28.39C20.8431 23.9853 24.0755 20.3213 28.2927 19.6456V16.8163H31.1052V19.6456C35.3225 20.3213 38.5548 23.9853 38.5548 28.39V29.8575H41.0211V32.6699H18.3768Z" fill="#AF8E42"/>
<path d="M29.6958 22.3457C26.3634 22.3457 23.6523 25.0567 23.6523 28.3892V29.8566H35.7392V28.3892C35.7392 25.0567 33.0281 22.3457 29.6958 22.3457Z" fill="#AF8E42"/>
</g>
<defs>
<clipPath id="clip0_681_1518">
<rect width="48" height="48" fill="white"/>
</clipPath>
</defs>
</svg>
