<svg width="32" height="32" viewBox="0 0 32 32" fill="none" xmlns="http://www.w3.org/2000/svg">
<path d="M28 9.33398V16.0007M4 9.33398C4 13.42 4 22.3663 4 22.8824C4 24.7257 6.59419 25.8216 11.7826 28.0133C13.8669 28.8937 14.9091 29.334 16 29.334V15.1404" stroke="white" stroke-width="2" stroke-linecap="round" stroke-linejoin="round"/>
<path d="M20 25.3333C20 25.3333 21.1667 25.3333 22.3333 28C22.3333 28 26.0392 21.3333 29.3333 20" stroke="white" stroke-width="2" stroke-linecap="round" stroke-linejoin="round"/>
<path d="M11.1012 12.9212L7.20629 11.0365C5.06876 10.0021 4 9.48499 4 8.66602C4 7.84704 5.06876 7.32988 7.20629 6.29555L11.1012 4.41084C13.5051 3.24763 14.7071 2.66602 16 2.66602C17.2929 2.66602 18.4949 3.24762 20.8988 4.41084L24.7937 6.29555C26.9312 7.32988 28 7.84704 28 8.66602C28 9.48499 26.9312 10.0021 24.7937 11.0365L20.8988 12.9212C18.4949 14.0844 17.2929 14.666 16 14.666C14.7071 14.666 13.5051 14.0844 11.1012 12.9212Z" stroke="white" stroke-width="2" stroke-linecap="round" stroke-linejoin="round"/>
<path d="M8 16L10.6667 17.3333" stroke="white" stroke-width="2" stroke-linecap="round" stroke-linejoin="round"/>
<path d="M22.6654 5.33398L9.33203 12.0007" stroke="white" stroke-width="2" stroke-linecap="round" stroke-linejoin="round"/>
</svg>
