<svg width="32" height="32" viewBox="0 0 32 32" fill="none" xmlns="http://www.w3.org/2000/svg">
<path d="M17.3346 29.3327C16.2437 29.3327 15.2016 28.8778 13.1172 27.9679C10.6844 26.906 8.82202 26.0931 7.52994 25.3327H2.66797M17.3346 29.3327C18.4256 29.3327 19.4677 28.8778 21.5521 27.9679C26.7405 25.7032 29.3346 24.5708 29.3346 22.666V8.66602M17.3346 29.3327V14.666M5.33464 8.66602V12.666" stroke="white" stroke-width="2" stroke-linecap="round" stroke-linejoin="round"/>
<path d="M12.4333 12.9212L8.53832 11.0365C6.40079 10.0021 5.33203 9.48499 5.33203 8.66602C5.33203 7.84704 6.40079 7.32988 8.53832 6.29555L12.4333 4.41084C14.8371 3.24763 16.0391 2.66602 17.332 2.66602C18.625 2.66602 19.827 3.24762 22.2308 4.41084L26.1258 6.29555C28.2632 7.32988 29.332 7.84704 29.332 8.66602C29.332 9.48499 28.2632 10.0021 26.1258 11.0365L22.2308 12.9212C19.827 14.0844 18.625 14.666 17.332 14.666C16.0391 14.666 14.8371 14.0844 12.4333 12.9212Z" stroke="white" stroke-width="2" stroke-linecap="round" stroke-linejoin="round"/>
<path d="M24.1808 5.35352L10.4883 11.9791" stroke="white" stroke-width="2" stroke-linecap="round" stroke-linejoin="round"/>
<path d="M2.66797 17.334H6.66797" stroke="white" stroke-width="2" stroke-linecap="round" stroke-linejoin="round"/>
<path d="M2.66797 21.334H6.66797" stroke="white" stroke-width="2" stroke-linecap="round" stroke-linejoin="round"/>
</svg>
