<svg width="32" height="32" viewBox="0 0 32 32" fill="none" xmlns="http://www.w3.org/2000/svg">
<path d="M6 13.6871V8H26V13.6871C26 17.9201 26 20.0367 24.6983 21.3516C23.3965 22.6667 21.3013 22.6667 17.1111 22.6667H14.8889C10.6986 22.6667 8.60349 22.6667 7.30175 21.3516C6 20.0367 6 17.9201 6 13.6871Z" stroke="white" stroke-width="2" stroke-linecap="round" stroke-linejoin="round"/>
<path d="M6 7.99935L6.96153 5.94807C7.70727 4.35719 8.08012 3.56175 8.83589 3.11388C9.59167 2.66602 10.5611 2.66602 12.5 2.66602H19.5C21.4389 2.66602 22.4083 2.66602 23.1641 3.11388C23.9199 3.56175 24.2928 4.35719 25.0384 5.94807L26 7.99935" stroke="white" stroke-width="2" stroke-linecap="round"/>
<path d="M14 12H18" stroke="white" stroke-width="2" stroke-linecap="round"/>
<path d="M16.0013 26V29.3333M16.0013 26H9.33464M16.0013 26H22.668M9.33464 26H6.0013C4.16036 26 2.66797 27.4924 2.66797 29.3333M9.33464 26V29.3333M22.668 26H26.0013C27.8422 26 29.3346 27.4924 29.3346 29.3333M22.668 26V29.3333" stroke="white" stroke-width="2" stroke-linecap="round" stroke-linejoin="round"/>
</svg>
