<svg width="32" height="32" viewBox="0 0 32 32" fill="none" xmlns="http://www.w3.org/2000/svg">
<path d="M14.668 29.334C13.577 29.334 12.5349 28.8937 10.4505 28.0133C5.26216 25.8216 2.66797 24.7257 2.66797 22.8824C2.66797 22.3663 2.66797 13.42 2.66797 9.33398M14.668 29.334V15.1404M14.668 29.334C15.4902 29.334 16.1613 29.0839 17.3346 28.5836M26.668 9.33398V16.0007" stroke="white" stroke-width="2" stroke-linecap="round" stroke-linejoin="round"/>
<path d="M21.332 20L25.332 24M25.332 24L29.332 28M25.332 24L21.332 28M25.332 24L29.332 20" stroke="white" stroke-width="2" stroke-linecap="round"/>
<path d="M9.7692 12.9212L5.87426 11.0365C3.73673 10.0021 2.66797 9.48499 2.66797 8.66602C2.66797 7.84704 3.73673 7.32988 5.87426 6.29555L9.7692 4.41084C12.1731 3.24763 13.375 2.66602 14.668 2.66602C15.9609 2.66602 17.1629 3.24762 19.5668 4.41084L23.4617 6.29555C25.5992 7.32988 26.668 7.84704 26.668 8.66602C26.668 9.48499 25.5992 10.0021 23.4617 11.0365L19.5668 12.9212C17.1629 14.0844 15.9609 14.666 14.668 14.666C13.375 14.666 12.1731 14.0844 9.7692 12.9212Z" stroke="white" stroke-width="2" stroke-linecap="round" stroke-linejoin="round"/>
<path d="M6.66797 16L9.33464 17.3333" stroke="white" stroke-width="2" stroke-linecap="round" stroke-linejoin="round"/>
<path d="M21.3333 5.33398L8 12.0007" stroke="white" stroke-width="2" stroke-linecap="round" stroke-linejoin="round"/>
</svg>
