<svg width="40" height="40" viewBox="0 0 40 40" fill="none" xmlns="http://www.w3.org/2000/svg">
<g clip-path="url(#clip0_681_1390)">
<path d="M39.1458 20.4266C39.1458 31.2362 30.3827 39.9993 19.5727 39.9993C8.76312 39.9993 0 31.2362 0 20.4266C0 9.61664 8.76312 0.853516 19.5727 0.853516C30.3827 0.853516 39.1458 9.61664 39.1458 20.4266Z" fill="#F5585C"/>
<path d="M31.3813 30.1456C31.2134 29.5283 31.1542 28.8864 31.2064 28.2488L31.6553 23.7192C31.8079 21.8719 31.5262 20.021 30.7084 18.3578C28.5956 14.0597 29.0802 13.7478 29.0146 9.48237C29.0146 8.61112 28.3084 7.90463 27.4369 7.90463C26.5656 7.90463 25.8591 8.61112 25.8591 9.48237C25.8591 26.8285 25.8914 25.5556 25.7843 26.0644V28.3358C25.7843 30.2496 24.2273 31.8066 22.3135 31.8066H13.6768C15.0037 33.6517 16.8188 35.0967 18.9255 35.9717C18.9383 35.9771 18.9514 35.9823 18.9645 35.9881C20.592 36.6753 21.7258 38.1454 22.0294 39.8474C26.1054 39.3371 29.7916 37.5735 32.6905 34.9545L31.3813 30.1456ZM7.8165 7.95987L7.33587 7.51455C6.59525 6.82799 5.42728 6.87252 4.74095 7.61346C4.05462 8.35408 4.09915 9.52205 4.83978 10.2084L7.8165 12.9666V7.95987Z" fill="#F9D6BF"/>
<path d="M5.81634 8.82711C5.36197 8.40602 5.17095 7.80414 5.24837 7.23047C5.0629 7.32531 4.89017 7.45141 4.74095 7.6125C4.05462 8.35312 4.09915 9.52109 4.83978 10.2074L7.8165 12.9656V10.6805L5.81634 8.82711Z" fill="#EFC1A8"/>
<path d="M22.3874 0H11.2048C9.29109 0 7.73438 1.55703 7.73438 3.47078V28.41C7.73438 30.3238 9.29109 31.8808 11.2048 31.8808H22.3874C24.3012 31.8808 25.8581 30.3241 25.8581 28.41V3.47078C25.8581 1.55703 24.3011 0 22.3874 0Z" fill="#494970"/>
<path d="M11.9922 28.41V3.47078C11.9922 1.55703 13.5489 0 15.4627 0H11.2048C9.29109 0 7.73438 1.55703 7.73438 3.47078V28.41C7.73438 30.3238 9.29109 31.8808 11.2048 31.8808H15.4627C13.5489 31.8808 11.9922 30.3238 11.9922 28.41Z" fill="#3A3A60"/>
<path d="M23.9343 28.4109C23.9343 29.2661 23.2416 29.9588 22.3868 29.9588H11.2041C10.3493 29.9588 9.65625 29.2658 9.65625 28.4109V3.47172C9.65625 2.61687 10.3493 1.92383 11.2041 1.92383H12.0568C12.1329 1.92382 12.2082 1.93879 12.2785 1.9679C12.3487 1.997 12.4126 2.03967 12.4664 2.09345C12.5202 2.14724 12.5628 2.2111 12.5919 2.28138C12.6211 2.35166 12.636 2.42698 12.636 2.50305V2.87047C12.636 3.36305 13.0391 3.76617 13.532 3.76617H20.0588C20.5513 3.76617 20.9545 3.36305 20.9545 2.87047V2.50305C20.9545 2.34942 21.0155 2.20209 21.1242 2.09347C21.2328 1.98485 21.3801 1.92383 21.5338 1.92383H22.3866C23.2415 1.92383 23.9343 2.61687 23.9343 3.47172V28.4109Z" fill="#E2E9F2"/>
<path d="M11.9915 28.4109V3.47172C11.9915 2.94195 12.1111 2.43961 12.3245 1.98977C12.242 1.94648 12.1502 1.92386 12.0571 1.92383H11.2041C10.3493 1.92383 9.65625 2.61687 9.65625 3.47172V28.4109C9.65625 29.2661 10.3493 29.9588 11.2041 29.9588H12.3568C12.1161 29.4784 11.991 28.9483 11.9915 28.4109Z" fill="#C7D6E5"/>
<path d="M18.7649 2.48449H16.8475C16.6988 2.48443 16.5562 2.42533 16.4511 2.32019C16.346 2.21505 16.2869 2.07247 16.2869 1.92379C16.2869 1.77515 16.346 1.63262 16.4512 1.52754C16.5563 1.42247 16.6989 1.36345 16.8475 1.36347H18.7649C18.8385 1.36344 18.9114 1.37791 18.9794 1.40606C19.0474 1.4342 19.1092 1.47547 19.1613 1.5275C19.2134 1.57953 19.2547 1.64131 19.2828 1.70931C19.311 1.7773 19.3255 1.85018 19.3255 1.92379C19.3255 2.23324 19.0747 2.48441 18.7649 2.48441V2.48449ZM14.8809 2.4841C14.5676 2.4841 14.3203 2.22746 14.3203 1.92379C14.3203 1.64582 14.5248 1.4209 14.7717 1.37449C14.8439 1.35954 14.9183 1.35954 14.9905 1.37449C15.2426 1.42152 15.4412 1.65105 15.4412 1.92379C15.4412 2.22988 15.1934 2.4841 14.8809 2.4841Z" fill="#5D5D84"/>
<path d="M10.4879 17.6433C9.88432 18.2948 8.86619 18.3339 8.2144 17.7296L5.51932 15.2327C4.86752 14.6287 4.82869 13.6107 5.43268 12.9588C6.03658 12.3069 7.05471 12.2682 7.70627 12.8721L10.4016 15.3694C11.0531 15.9733 11.0922 16.9914 10.4879 17.6433Z" fill="#F9D6BF"/>
<path d="M9.32303 16.5958L6.62803 14.0985C6.17725 13.681 6.02014 13.0652 6.16537 12.5098C5.88462 12.5901 5.63122 12.7458 5.43264 12.9599C4.82873 13.6118 4.86748 14.6298 5.51936 15.2338L8.21436 17.731C8.86615 18.3349 9.88389 18.2962 10.4879 17.6443C10.6678 17.4506 10.797 17.2153 10.8639 16.9595C10.3399 17.1106 9.75217 16.9934 9.32303 16.5958ZM31.2112 29.2102C28.2296 34.1055 22.4407 36.3788 17.0037 34.9649C17.6128 35.3567 18.2556 35.6935 18.9244 35.9714C18.9376 35.9769 18.9507 35.9823 18.9635 35.9878C20.5913 36.6754 21.7247 38.1455 22.0283 39.8474C26.1047 39.3372 29.7908 37.5735 32.6894 34.9542L31.3805 30.1456C31.2972 29.8393 31.2406 29.5263 31.2112 29.2102Z" fill="#EFC1A8"/>
<path d="M10.4879 26.4205C9.88432 27.0724 8.86619 27.1111 8.2144 26.5072L5.51932 24.0099C4.86752 23.406 4.82869 22.3879 5.43268 21.736C6.03658 21.0845 7.05471 21.0454 7.70627 21.6494L10.4016 24.1467C11.0531 24.7506 11.0922 25.7687 10.4879 26.4205Z" fill="#F9D6BF"/>
<path d="M9.32303 25.3731L6.62803 22.8759C6.17725 22.4584 6.02014 21.8425 6.16537 21.2871C5.88463 21.3675 5.63123 21.5231 5.43264 21.7372C4.82873 22.3891 4.86748 23.4071 5.51936 24.0111L8.21436 26.5084C8.86615 27.1123 9.88389 27.0735 10.4879 26.4216C10.6678 26.2279 10.797 25.9927 10.8639 25.7369C10.3399 25.8879 9.75217 25.7707 9.32303 25.3731Z" fill="#EFC1A8"/>
<path d="M10.4879 22.0316C9.88432 22.6834 8.86619 22.7222 8.2144 22.1183L5.51932 19.621C4.86752 19.0174 4.82869 17.9993 5.43268 17.3475C6.03658 16.6956 7.05471 16.6569 7.70627 17.2608L10.4016 19.758C11.0531 20.3619 11.0922 21.3797 10.4879 22.0316Z" fill="#F9D6BF"/>
<path d="M9.32303 20.9848L6.62803 18.4875C6.17725 18.0697 6.02014 17.4541 6.16537 16.8984C5.88457 16.9788 5.63116 17.1346 5.43264 17.3489C4.82873 18.0007 4.86748 19.0184 5.51936 19.6224L8.21436 22.1197C8.86615 22.7236 9.88389 22.6848 10.4879 22.033C10.6679 21.8393 10.7971 21.604 10.8639 21.3482C10.3399 21.4996 9.75217 21.3824 9.32303 20.9848Z" fill="#EFC1A8"/>
<path d="M15.0508 27.8335C14.7188 27.8335 14.4648 27.561 14.4648 27.2485C14.4648 26.9247 14.7279 26.6626 15.0508 26.6626C15.3752 26.6626 15.6367 26.9247 15.6367 27.2485C15.6367 27.5717 15.3742 27.8335 15.0508 27.8335ZM16.7961 27.8335C16.469 27.8335 16.2102 27.568 16.2102 27.2485C16.2102 26.9744 16.3994 26.7319 16.6813 26.6735C17.0335 26.6027 17.3821 26.8701 17.3821 27.2485C17.3821 27.5567 17.132 27.8335 16.7961 27.8335ZM18.5408 27.8335C18.2167 27.8335 17.9548 27.5698 17.9548 27.2485C17.9548 26.8826 18.2881 26.6012 18.6555 26.6735C18.9424 26.7343 19.1267 26.979 19.1267 27.2485C19.1267 27.5704 18.8646 27.8335 18.5408 27.8335Z" fill="#C7D6E5"/>
<path d="M22.3867 1.92383H21.534C21.3804 1.92385 21.2331 1.98488 21.1244 2.0935C21.0158 2.20212 20.9548 2.34943 20.9548 2.50305V2.87047C20.9548 3.36305 20.5513 3.76656 20.0588 3.76656H13.532C13.0395 3.76656 12.6363 3.36305 12.6363 2.87047V2.50305C12.6363 2.34943 12.5753 2.20212 12.4667 2.0935C12.358 1.98488 12.2107 1.92385 12.0571 1.92383H11.2041C10.3493 1.92383 9.65625 2.61687 9.65625 3.47172V6.11938C11.7659 5.55453 15.027 5.26398 18.6538 7.05203C20.3984 7.91234 22.1883 8.42711 23.9345 8.49578V3.47172C23.9342 2.61687 23.2416 1.92383 22.3867 1.92383Z" fill="#FAD964"/>
<path d="M17.9341 6.72242C18.1771 6.82546 18.417 6.93538 18.6538 7.05203C20.3984 7.91234 22.1883 8.42711 23.9345 8.49578V4.94969C22.1883 5.01805 20.3984 5.53312 18.6538 6.39313C18.4171 6.50975 18.1771 6.61956 17.9341 6.72242ZM11.9915 3.47172C11.9915 2.94195 12.1111 2.43961 12.3245 1.98977C12.2418 1.94705 12.1502 1.92446 12.0571 1.92383H11.2041C10.3493 1.92383 9.65625 2.61687 9.65625 3.47172V6.11938C10.4206 5.91478 11.2024 5.78187 11.9914 5.72234L11.9915 3.47172Z" fill="#FAB941"/>
<path d="M21.7249 13.623H11.8699C11.2968 13.623 10.832 14.0875 10.832 14.6609C10.832 15.2341 11.2968 15.6985 11.8699 15.6985H21.7249C22.298 15.6985 22.7628 15.2341 22.7628 14.6609C22.7626 14.0875 22.298 13.623 21.7249 13.623Z" fill="#BC4C2E"/>
<path d="M14.3125 14.6609C14.3125 14.0875 14.7773 13.623 15.3505 13.623H11.8699C11.2965 13.623 10.832 14.0875 10.832 14.6609C10.832 15.2341 11.2965 15.6985 11.8699 15.6985H15.3504C14.7773 15.6985 14.3125 15.2341 14.3125 14.6609Z" fill="#AB3829"/>
<path d="M21.6922 17.2754H11.9003C11.7848 17.2755 11.674 17.3214 11.5924 17.4031C11.5107 17.4849 11.4648 17.5956 11.4648 17.7112V18.4396C11.4648 19.5373 12.3547 20.4276 13.4524 20.4276H20.1401C21.2377 20.4276 22.1277 19.5373 22.1277 18.4396V17.7112C22.1277 17.654 22.1164 17.5974 22.0946 17.5445C22.0727 17.4917 22.0406 17.4436 22.0002 17.4032C21.9597 17.3627 21.9117 17.3306 21.8589 17.3087C21.806 17.2868 21.7494 17.2754 21.6922 17.2754Z" fill="#E6AC6D"/>
<path d="M21.7331 17.2752H11.8597C11.8079 17.2752 11.7565 17.265 11.7086 17.2452C11.6607 17.2254 11.6172 17.1963 11.5806 17.1597C11.5439 17.123 11.5148 17.0795 11.4949 17.0317C11.4751 16.9838 11.4649 16.9325 11.4648 16.8806V16.0941C11.4648 15.9894 11.5065 15.889 11.5805 15.8149C11.6546 15.7408 11.755 15.6992 11.8598 15.6992H21.7331C21.8379 15.6992 21.9383 15.7409 22.0123 15.8149C22.0864 15.889 22.128 15.9894 22.128 16.0941V16.8805C22.128 17.0985 21.9513 17.2752 21.7331 17.2752Z" fill="#F5585C"/>
<path d="M14.7298 16.8805V16.0941C14.7298 15.9895 14.7714 15.8891 14.8454 15.815C14.9194 15.741 15.0197 15.6993 15.1244 15.6992H11.8598C11.8079 15.6992 11.7565 15.7094 11.7086 15.7293C11.6607 15.7491 11.6172 15.7782 11.5805 15.8149C11.5438 15.8516 11.5148 15.8951 11.4949 15.943C11.4751 15.9909 11.4648 16.0423 11.4648 16.0941V16.8805C11.4648 16.9324 11.4751 16.9838 11.4949 17.0317C11.5148 17.0796 11.5438 17.1231 11.5805 17.1598C11.6172 17.1965 11.6607 17.2256 11.7086 17.2454C11.7565 17.2653 11.8079 17.2755 11.8598 17.2755H15.1245C15.0199 17.2753 14.9195 17.2337 14.8455 17.1596C14.7715 17.0856 14.73 16.9852 14.7299 16.8805H14.7298Z" fill="#D13044"/>
<path d="M11.4648 12.0141C11.4648 10.483 12.706 9.24219 14.2367 9.24219H19.3558C20.8868 9.24219 22.1277 10.483 22.1277 12.0141C22.1277 12.0639 22.1179 12.1134 22.0988 12.1595C22.0798 12.2056 22.0518 12.2475 22.0166 12.2827C21.9813 12.318 21.9394 12.346 21.8933 12.3651C21.8473 12.3842 21.7979 12.3941 21.748 12.3941H11.8445C11.7946 12.3941 11.7452 12.3842 11.6992 12.3651C11.6531 12.346 11.6112 12.318 11.5759 12.2827C11.5407 12.2475 11.5127 12.2056 11.4937 12.1595C11.4746 12.1134 11.4648 12.0639 11.4648 12.0141Z" fill="#E6AC6D"/>
<path d="M14.7091 18.4395V17.7112C14.7092 17.5956 14.7551 17.4848 14.8368 17.4031C14.9185 17.3213 15.0294 17.2754 15.1449 17.2754H11.9004C11.7849 17.2755 11.6741 17.3214 11.5924 17.4031C11.5107 17.4848 11.4648 17.5956 11.4648 17.7112V18.4396C11.4648 19.5373 12.3547 20.4276 13.4524 20.4276H16.6968C15.5991 20.4276 14.7091 19.5373 14.7091 18.4396V18.4395ZM14.7091 12.0141C14.7091 10.483 15.9503 9.24219 17.4814 9.24219H14.2367C12.706 9.24219 11.4648 10.483 11.4648 12.0141C11.4648 12.0639 11.4746 12.1134 11.4937 12.1595C11.5127 12.2056 11.5407 12.2475 11.5759 12.2827C11.6112 12.318 11.6531 12.346 11.6992 12.3651C11.7452 12.3842 11.7946 12.3941 11.8445 12.3941H15.0891C15.0392 12.3941 14.9897 12.3843 14.9436 12.3652C14.8975 12.3461 14.8556 12.3181 14.8203 12.2828C14.7851 12.2475 14.7571 12.2056 14.738 12.1595C14.7189 12.1134 14.7091 12.064 14.7091 12.0141Z" fill="#CE8A4D"/>
<path d="M21.7288 12.3945H11.8669C11.809 12.5313 11.7754 12.6771 11.7677 12.8255C11.7087 13.9159 12.9459 14.565 13.8066 13.9284C13.8576 13.8907 13.9193 13.8704 13.9827 13.8704C14.046 13.8704 14.1077 13.8907 14.1587 13.9284C14.3784 14.091 14.6444 14.1788 14.9177 14.1788C15.191 14.1788 15.4571 14.091 15.6767 13.9284C15.7277 13.8908 15.7894 13.8705 15.8528 13.8705C15.9161 13.8705 15.9778 13.8908 16.0288 13.9284C16.4713 14.2559 17.1073 14.2684 17.5673 13.9284C17.6182 13.8908 17.6799 13.8705 17.7432 13.8705C17.8065 13.8705 17.8682 13.8908 17.9191 13.9284C18.1388 14.091 18.4049 14.1787 18.6782 14.1787C18.9516 14.1787 19.2177 14.091 19.4373 13.9284C19.4883 13.8908 19.55 13.8705 19.6133 13.8705C19.6766 13.8705 19.7383 13.8908 19.7892 13.9284C20.6498 14.5647 21.8873 13.9159 21.8281 12.8255C21.8205 12.6771 21.7869 12.5313 21.7289 12.3946L21.7288 12.3945Z" fill="#AFBC31"/>
<path d="M14.8634 12.8254C14.871 12.6771 14.9045 12.5312 14.9626 12.3945H11.8669C11.809 12.5313 11.7754 12.6771 11.7677 12.8254C11.7087 13.9158 12.9459 14.5649 13.8066 13.9283C13.8576 13.8907 13.9193 13.8704 13.9827 13.8704C14.046 13.8704 14.1077 13.8907 14.1587 13.9283C14.3547 14.0733 14.5882 14.159 14.8314 14.1753C15.0747 14.1917 15.3175 14.1379 15.5311 14.0205C15.1252 13.8005 14.8341 13.3677 14.8634 12.8254Z" fill="#9FA519"/>
<path d="M12.6484 17.2754L14.4359 19.0631C14.7395 19.3668 15.237 19.3668 15.5405 19.0631L17.328 17.2754H12.6484Z" fill="#FAD964"/>
<path d="M14.8963 19.285C14.7718 19.0206 14.7074 18.7319 14.7077 18.4397V17.7112C14.7078 17.5956 14.7537 17.4848 14.8354 17.4031C14.9171 17.3213 15.0279 17.2754 15.1435 17.2754H12.6484L14.4359 19.0631C14.5599 19.1869 14.7222 19.2651 14.8963 19.285Z" fill="#FAB941"/>
<path d="M18.2031 24.2988H15.3906C14.808 24.2988 14.3359 23.8267 14.3359 23.2441C14.3359 22.6616 14.808 22.1895 15.3906 22.1895H18.2031C18.7857 22.1895 19.2578 22.6616 19.2578 23.2441C19.2578 23.8267 18.7857 24.2988 18.2031 24.2988Z" fill="#AFBC31"/>
<path d="M16.7969 23.2441C16.7969 22.6616 17.269 22.1895 17.8516 22.1895H15.3906C14.808 22.1895 14.3359 22.6616 14.3359 23.2441C14.3359 23.8267 14.808 24.2988 15.3906 24.2988H17.8516C17.269 24.2988 16.7969 23.8267 16.7969 23.2441Z" fill="#9FA519"/>
</g>
<defs>
<clipPath id="clip0_681_1390">
<rect width="40" height="40" fill="white"/>
</clipPath>
</defs>
</svg>
