<svg width="32" height="32" viewBox="0 0 32 32" fill="none" xmlns="http://www.w3.org/2000/svg">
<path d="M19.5535 15.3359L16.6601 15.3366C13.3464 15.3366 10.6601 18.0228 10.6601 21.3366H19.9948L19.9935 22.6699L9.3268 22.6688V21.3366C9.3268 19.8934 9.75106 18.5324 10.5083 17.3355L6.66013 17.3366C4.00373 17.3366 1.71026 18.8903 0.63866 21.1384C3.79173 25.2992 8.8976 28.0032 14.6601 28.0032C18.3419 28.0032 21.4607 27.2158 23.9939 25.8368L23.9921 13.4312C22.3314 13.6691 20.8117 14.3442 19.5535 15.3359ZM25.3268 25.3366C25.3268 26.073 25.9238 26.6699 26.6602 26.6699H29.3268C30.0632 26.6699 30.6602 26.073 30.6602 25.3366V13.3366C30.6602 12.6002 30.0632 12.0033 29.3268 12.0033H26.6602C25.9238 12.0033 25.3268 12.6002 25.3268 13.3366V25.3366ZM7.99346 6.66992C5.7844 6.66992 3.99346 8.46077 3.99346 10.6699C3.99346 12.8791 5.7844 14.6699 7.99346 14.6699C10.2027 14.6699 11.9935 12.8791 11.9935 10.6699C11.9935 8.46077 10.2027 6.66992 7.99346 6.66992ZM17.3268 2.66992C15.1177 2.66992 13.3268 4.46078 13.3268 6.66992C13.3268 8.87906 15.1177 10.6699 17.3268 10.6699C19.536 10.6699 21.3268 8.87906 21.3268 6.66992C21.3268 4.46078 19.536 2.66992 17.3268 2.66992Z" fill="white"/>
</svg>
