<svg width="40" height="40" viewBox="0 0 40 40" fill="none" xmlns="http://www.w3.org/2000/svg">
<path d="M20 37.8125C29.8376 37.8125 37.8125 29.8376 37.8125 20C37.8125 10.1624 29.8376 2.1875 20 2.1875C10.1624 2.1875 2.1875 10.1624 2.1875 20C2.1875 29.8376 10.1624 37.8125 20 37.8125Z" fill="#FEDA2C"/>
<path d="M20.0008 33.732C27.5843 33.732 33.732 27.5843 33.732 20.0008C33.732 12.4172 27.5843 6.26953 20.0008 6.26953C12.4172 6.26953 6.26953 12.4172 6.26953 20.0008C6.26953 27.5843 12.4172 33.732 20.0008 33.732Z" fill="#FCAA17"/>
<path d="M20.0002 9.44727L23.123 15.7748L30.1055 16.7895L25.053 21.7148L26.2458 28.6691L20.0002 25.3857L13.7545 28.6691L14.9473 21.7148L9.89453 16.7895L16.8773 15.7748L20.0002 9.44727Z" fill="#FEDA2C"/>
</svg>
