<svg width="20" height="20" viewBox="0 0 20 20" fill="none" xmlns="http://www.w3.org/2000/svg">
<path fill-rule="evenodd" clip-rule="evenodd" d="M18.1263 9.45382C18.1263 5.63723 15.1941 2.50553 11.4596 2.18852V0.912109H10.2096V2.18852C6.47513 2.50553 3.54297 5.63723 3.54297 9.45382V10.0788H18.1263V9.45382ZM7.47423 12.1622C6.75594 12.1622 6.06706 12.4475 5.55915 12.9554L1.92685 16.5877L1.04297 15.7038L4.58464 12.1622H2.70964V10.9122H7.47423H9.42689H13.7513H18.3397H18.9596V12.1622H17.2033L14.132 15.5406C13.4395 16.3023 12.4775 16.7643 11.45 16.8286L6.36836 17.1462L4.42685 19.0877L3.54297 18.2038L5.81868 15.9281L11.372 15.581C12.075 15.5371 12.7332 15.221 13.2071 14.6997L15.514 12.1622H14.2691L12.857 13.5742C12.4272 14.004 11.8443 14.2455 11.2365 14.2455H7.55185V12.9955H10.4477C10.3511 12.52 9.9308 12.1622 9.42689 12.1622H7.47423ZM11.697 12.8882C11.6614 12.6299 11.5828 12.3854 11.4686 12.1622H12.5013L11.9731 12.6903C11.8917 12.7717 11.7983 12.8382 11.697 12.8882Z" fill="#33C159"/>
</svg>
