<svg width="22" height="22" viewBox="0 0 22 22" fill="none" xmlns="http://www.w3.org/2000/svg">
<path d="M7.58579 2.8995L10.1924 0.292897C10.5829 -0.0976325 11.2161 -0.0976325 11.6066 0.292897L14.2132 2.8995H17.8995C18.4518 2.8995 18.8995 3.34722 18.8995 3.8995V7.58579L21.5061 10.1924C21.8966 10.5829 21.8966 11.2161 21.5061 11.6066L18.8995 14.2132V17.8995C18.8995 18.4518 18.4518 18.8995 17.8995 18.8995H14.2132L11.6066 21.5061C11.2161 21.8966 10.5829 21.8966 10.1924 21.5061L7.58579 18.8995H3.8995C3.34722 18.8995 2.8995 18.4518 2.8995 17.8995V14.2132L0.292897 11.6066C-0.0976325 11.2161 -0.0976325 10.5829 0.292897 10.1924L2.8995 7.58579V3.8995C2.8995 3.34722 3.34722 2.8995 3.8995 2.8995H7.58579ZM10.8995 13.8995C12.5563 13.8995 13.8995 12.5563 13.8995 10.8995C13.8995 9.24262 12.5563 7.8995 10.8995 7.8995C9.24262 7.8995 7.8995 9.24262 7.8995 10.8995C7.8995 12.5563 9.24262 13.8995 10.8995 13.8995Z" fill="white"/>
</svg>
