<svg width="20" height="20" viewBox="0 0 20 20" fill="none" xmlns="http://www.w3.org/2000/svg">
<path d="M4.59986 7.26083C6.02153 6.15083 7.85736 5.20833 9.99986 5.20833C12.1424 5.20833 13.9782 6.15083 15.3999 7.26083C16.8224 8.37167 17.874 9.68333 18.4624 10.5075L18.5065 10.57C18.7174 10.8633 18.9582 11.1983 18.9582 11.6667C18.9582 12.135 18.7174 12.47 18.5065 12.7633L18.4624 12.8258C17.874 13.65 16.8224 14.9617 15.3999 16.0725C13.9782 17.1825 12.1424 18.125 9.99986 18.125C7.85736 18.125 6.02153 17.1825 4.59986 16.0725C3.17736 14.9617 2.1257 13.65 1.53736 12.8258L1.4932 12.7633C1.28236 12.47 1.04153 12.135 1.04153 11.6667C1.04153 11.1983 1.28236 10.8633 1.4932 10.57L1.53736 10.5075C2.1257 9.68333 3.17736 8.37167 4.59986 7.26083ZM5.36903 8.24583C4.07653 9.255 3.1057 10.4625 2.5557 11.2342C2.41903 11.425 2.35486 11.5175 2.3157 11.5917C2.29153 11.6392 2.29153 11.6517 2.29153 11.665V11.6667V11.6683C2.29153 11.6817 2.29153 11.6942 2.3157 11.7417C2.35486 11.8158 2.41903 11.9083 2.5557 12.0992C3.1057 12.8708 4.07653 14.0783 5.36903 15.0875C6.6632 16.0975 8.23403 16.875 9.99986 16.875C11.7657 16.875 13.3365 16.0975 14.6307 15.0875C15.9232 14.0783 16.894 12.8708 17.444 12.0992C17.5807 11.9083 17.6449 11.8158 17.684 11.7417C17.7082 11.6942 17.7082 11.6817 17.7082 11.6683V11.665C17.7082 11.6517 17.7082 11.6392 17.684 11.5917C17.6449 11.5175 17.5807 11.425 17.444 11.2342C16.894 10.4625 15.9232 9.255 14.6307 8.24583C13.3365 7.23583 11.7657 6.45833 9.99986 6.45833C8.23403 6.45833 6.6632 7.23583 5.36903 8.24583ZM9.99986 14.7917C8.27403 14.7917 6.87486 13.3925 6.87486 11.6667C6.87486 9.94083 8.27403 8.54167 9.99986 8.54167C11.7257 8.54167 13.1249 9.94083 13.1249 11.6667C13.1249 13.3925 11.7257 14.7917 9.99986 14.7917ZM17.8674 7.08417L17.8607 7.07583C17.8549 7.07 17.8457 7.06 17.8332 7.04583C17.8074 7.01833 17.7682 6.9775 17.7165 6.92417C17.6115 6.81667 17.4557 6.66167 17.254 6.47417C16.8482 6.09917 16.2615 5.5975 15.5374 5.0975C14.0765 4.08833 12.119 3.125 9.99986 3.125C7.8807 3.125 5.9232 4.08833 4.46236 5.0975C3.7382 5.5975 3.15153 6.09917 2.74653 6.47417C2.54403 6.66167 2.3882 6.81667 2.2832 6.92417C2.23153 6.9775 2.19236 7.01833 2.16653 7.04583C2.15403 7.06 2.14486 7.07 2.13903 7.07583L2.1332 7.0825L2.13236 7.08333C1.90153 7.34 1.50653 7.3625 1.24986 7.1325C0.992364 6.90167 0.970697 6.50667 1.2007 6.25L1.20236 6.2475L1.2057 6.24417L1.2157 6.23333C1.22486 6.22417 1.23653 6.21083 1.25236 6.19333C1.28403 6.16 1.32903 6.11167 1.3882 6.05167C1.5057 5.93083 1.67736 5.76 1.89653 5.5575C2.33486 5.15083 2.9682 4.61083 3.75236 4.06917C5.30736 2.995 7.51653 1.875 9.99986 1.875C12.4832 1.875 14.6924 2.995 16.2474 4.06917C17.0315 4.61083 17.6649 5.15083 18.1032 5.5575C18.3224 5.76 18.494 5.93083 18.6115 6.05167C18.6707 6.11167 18.7157 6.16 18.7474 6.19333C18.7632 6.21083 18.7757 6.22417 18.784 6.23333L18.794 6.24417L18.7974 6.2475L18.7982 6.24917C18.7982 6.24917 18.799 6.25 18.3332 6.66667L18.799 6.25C19.029 6.50667 19.0074 6.90167 18.7499 7.1325C18.4932 7.3625 18.0982 7.34083 17.8674 7.08417ZM8.12486 11.6667C8.12486 12.7025 8.96403 13.5417 9.99986 13.5417C11.0357 13.5417 11.8749 12.7025 11.8749 11.6667C11.8749 10.6308 11.0357 9.79167 9.99986 9.79167C8.96403 9.79167 8.12486 10.6308 8.12486 11.6667ZM1.25903 6.30167C1.31736 6.35417 1.4332 6.4575 1.6657 6.66583L1.2007 6.25C1.2007 6.25 1.20153 6.25083 1.25903 6.30167Z" fill="#52525B"/>
</svg>
