<svg width="20" height="20" viewBox="0 0 20 20" fill="none" xmlns="http://www.w3.org/2000/svg">
<path d="M11.441 2.37926L12.9075 5.33651C13.1075 5.74817 13.6407 6.14303 14.0907 6.21864L16.7487 6.6639C18.4486 6.94955 18.8486 8.19295 17.6236 9.41953L15.5572 11.503C15.2072 11.8559 15.0156 12.5364 15.1239 13.0237L15.7156 15.6029C16.1821 17.6444 15.1072 18.4341 13.3158 17.3671L10.8244 15.8801C10.3745 15.6113 9.63288 15.6113 9.17455 15.8801L6.68319 17.3671C4.90005 18.4341 3.81684 17.6359 4.28346 15.6029L4.87506 13.0237C4.98338 12.5364 4.79173 11.8559 4.44177 11.503L2.37533 9.41953C1.1588 8.19295 1.55043 6.94955 3.25023 6.6639L5.90828 6.21864C6.34989 6.14303 6.88317 5.74817 7.08314 5.33651L8.54963 2.37926C9.34955 0.774621 10.6494 0.774621 11.441 2.37926Z" fill="#AF8E42"/>
</svg>
