<svg width="32" height="32" viewBox="0 0 32 32" fill="none" xmlns="http://www.w3.org/2000/svg">
<path d="M3.33464 9.33333C3.33464 12.2789 5.72245 14.6667 8.66797 14.6667C11.6135 14.6667 14.0013 12.2789 14.0013 9.33333C14.0013 6.38781 11.6135 4 8.66797 4C5.72245 4 3.33464 6.38781 3.33464 9.33333ZM2.66797 28V22C2.66797 18.6863 5.35426 16 8.66797 16C11.9817 16 14.668 18.6863 14.668 22V28H2.66797ZM23.3346 14.6667C20.3892 14.6667 18.0013 12.2789 18.0013 9.33333C18.0013 6.38781 20.3892 4 23.3346 4C26.2801 4 28.668 6.38781 28.668 9.33333C28.668 12.2789 26.2801 14.6667 23.3346 14.6667ZM17.3346 28V22C17.3346 18.6863 20.0209 16 23.3346 16C26.6484 16 29.3346 18.6863 29.3346 22V28H17.3346Z" fill="white"/>
</svg>
