<svg width="20" height="20" viewBox="0 0 20 20" fill="none" xmlns="http://www.w3.org/2000/svg">
<path d="M10.001 1.04102C14.9484 1.04102 18.9598 5.05162 18.96 9.99902C18.96 14.9466 14.9485 18.958 10.001 18.958C5.05358 18.9578 1.04297 14.9465 1.04297 9.99902C1.04315 5.05173 5.05368 1.04119 10.001 1.04102ZM10.001 5.83301C9.54097 5.83324 9.16802 6.20597 9.16797 6.66602V9.99902C9.16797 10.22 9.25583 10.4326 9.41211 10.5889L11.0791 12.2559C11.4046 12.5809 11.9325 12.5812 12.2578 12.2559C12.5831 11.9306 12.5829 11.4026 12.2578 11.0771L10.835 9.6543V6.66602C10.8349 6.20583 10.4612 5.83301 10.001 5.83301Z" fill="#FEC400"/>
</svg>
