<svg width="18" height="18" viewBox="0 0 18 18" fill="none" xmlns="http://www.w3.org/2000/svg">
<path d="M16.5039 4.5H11.2539C8.76865 4.5 6.75391 6.51472 6.75391 9.00001C6.75391 11.4853 8.76865 13.5 11.2539 13.5H16.5039V15C16.5039 15.4142 16.1681 15.75 15.7539 15.75H2.25391C1.8397 15.75 1.50391 15.4142 1.50391 15V3C1.50391 2.58578 1.8397 2.25 2.25391 2.25H15.7539C16.1681 2.25 16.5039 2.58578 16.5039 3V4.5ZM11.2539 6H17.2539V12H11.2539C9.59702 12 8.25392 10.6568 8.25392 9.00001C8.25392 7.34314 9.59702 6 11.2539 6ZM11.2539 8.25001V9.75001H13.5039V8.25001H11.2539Z" fill="#4452E6"/>
</svg>
